<svg version="1.1" viewBox="0.0 0.0 600.0 371.0" fill="none" stroke="none" stroke-linecap="square" stroke-miterlimit="10" width="600" height="371" xmlns:xlink="http://www.w3.org/1999/xlink" xmlns="http://www.w3.org/2000/svg"><path fill="#ffffff" d="M0 0L600.0 0L600.0 371.0L0 371.0L0 0Z" fill-rule="nonzero"/><path stroke="#333333" stroke-width="1.0" stroke-linecap="butt" d="M45.5 332.5L581.5 332.5" fill-rule="nonzero"/><path stroke="#cccccc" stroke-width="1.0" stroke-linecap="butt" d="M45.5 264.5L581.5 264.5" fill-rule="nonzero"/><path stroke="#cccccc" stroke-width="1.0" stroke-linecap="butt" d="M45.5 197.5L581.5 197.5" fill-rule="nonzero"/><path stroke="#cccccc" stroke-width="1.0" stroke-linecap="butt" d="M45.5 129.5L581.5 129.5" fill-rule="nonzero"/><path stroke="#cccccc" stroke-width="1.0" stroke-linecap="butt" d="M45.5 61.5L581.5 61.5" fill-rule="nonzero"/><clipPath id="id_0"><path d="M45.55 61.916668L581.45 61.916668L581.45 332.45L45.55 332.45L45.55 61.916668Z" clip-rule="nonzero"/></clipPath><path stroke="#4285f4" stroke-width="2.0" stroke-linecap="butt" clip-path="url(#id_0)" d="M199.47873 61.916668L199.47873 143.07666" fill-rule="nonzero"/><path stroke="#4285f4" stroke-width="2.0" stroke-linecap="butt" clip-path="url(#id_0)" d="M199.47873 197.18333L199.47873 75.44334" fill-rule="nonzero"/><path fill="#4285f4" clip-path="url(#id_0)" d="M124.36489 74.44334L274.59256 74.44334L274.59256 144.07666L124.36489 144.07666L124.36489 74.44334Z" fill-rule="nonzero"/><path stroke="#4285f4" stroke-width="2.0" stroke-linecap="butt" clip-path="url(#id_0)" d="M427.52127 116.02333L427.52127 264.81668" fill-rule="nonzero"/><path stroke="#4285f4" stroke-width="2.0" stroke-linecap="butt" clip-path="url(#id_0)" d="M427.52127 332.45L427.52127 224.23666" fill-rule="nonzero"/><path fill="#4285f4" clip-path="url(#id_0)" d="M352.40744 223.23666L502.6351 223.23666L502.6351 265.81665L352.40744 265.81665L352.40744 223.23666Z" fill-rule="nonzero"/><path fill="#000000" d="M33.05 332.21564Q33.05 330.6844 33.3625 329.7625Q33.675 328.825 34.284374 328.325Q34.909374 327.825 35.846874 327.825Q36.534374 327.825 37.05 328.10626Q37.58125 328.3875 37.925 328.91876Q38.26875 329.4344 38.45625 330.1844Q38.64375 330.9344 38.64375 332.21564Q38.64375 333.73126 38.33125 334.65314Q38.034374 335.575 37.409374 336.09064Q36.8 336.59064 35.846874 336.59064Q34.6125 336.59064 33.89375 335.7Q33.05 334.6375 33.05 332.21564ZM34.128124 332.21564Q34.128124 334.325 34.628124 335.02814Q35.128124 335.73126 35.846874 335.73126Q36.58125 335.73126 37.065624 335.02814Q37.565624 334.325 37.565624 332.21564Q37.565624 330.09064 37.065624 329.40314Q36.58125 328.7 35.83125 328.7Q35.1125 328.7 34.675 329.3094Q34.128124 330.09064 34.128124 332.21564Z" fill-rule="nonzero"/><path fill="#000000" d="M33.05 266.56668L34.159374 266.47293Q34.284374 267.28543 34.721874 267.69168Q35.175 268.09793 35.815624 268.09793Q36.565624 268.09793 37.096874 267.5198Q37.628124 266.94168 37.628124 266.00418Q37.628124 265.09793 37.1125 264.5823Q36.6125 264.05106 35.784374 264.05106Q35.284374 264.05106 34.8625 264.28543Q34.45625 264.5198 34.221874 264.87918L33.2375 264.75418L34.065624 260.34793L38.346874 260.34793L38.346874 261.34793L34.909374 261.34793L34.45625 263.66043Q35.221874 263.11356 36.065624 263.11356Q37.190624 263.11356 37.95625 263.8948Q38.7375 264.67606 38.7375 265.91043Q38.7375 267.06668 38.065624 267.92606Q37.2375 268.9573 35.815624 268.9573Q34.64375 268.9573 33.89375 268.30106Q33.159374 267.6448 33.05 266.56668Z" fill-rule="nonzero"/><path fill="#000000" d="M30.01875 201.18333L28.971874 201.18333L28.971874 194.46458Q28.58125 194.82396 27.95625 195.19896Q27.346874 195.55833 26.8625 195.73021L26.8625 194.71458Q27.7375 194.29271 28.39375 193.71458Q29.065624 193.12083 29.346874 192.55833L30.01875 192.55833L30.01875 201.18333ZM33.05 196.94896Q33.05 195.41771 33.3625 194.49583Q33.675 193.55833 34.284374 193.05833Q34.909374 192.55833 35.846874 192.55833Q36.534374 192.55833 37.05 192.83958Q37.58125 193.12083 37.925 193.65208Q38.26875 194.16771 38.45625 194.91771Q38.64375 195.66771 38.64375 196.94896Q38.64375 198.46458 38.33125 199.38646Q38.034374 200.30833 37.409374 200.82396Q36.8 201.32396 35.846874 201.32396Q34.6125 201.32396 33.89375 200.43333Q33.05 199.37083 33.05 196.94896ZM34.128124 196.94896Q34.128124 199.05833 34.628124 199.76146Q35.128124 200.46458 35.846874 200.46458Q36.58125 200.46458 37.065624 199.76146Q37.565624 199.05833 37.565624 196.94896Q37.565624 194.82396 37.065624 194.13646Q36.58125 193.43333 35.83125 193.43333Q35.1125 193.43333 34.675 194.04271Q34.128124 194.82396 34.128124 196.94896Z" fill-rule="nonzero"/><path fill="#000000" d="M30.01875 133.55L28.971874 133.55L28.971874 126.83125Q28.58125 127.19063 27.95625 127.56563Q27.346874 127.925 26.8625 128.09688L26.8625 127.08125Q27.7375 126.65938 28.39375 126.08125Q29.065624 125.4875 29.346874 124.925L30.01875 124.925L30.01875 133.55ZM33.05 131.3L34.159374 131.20625Q34.284374 132.01875 34.721874 132.425Q35.175 132.83125 35.815624 132.83125Q36.565624 132.83125 37.096874 132.25313Q37.628124 131.675 37.628124 130.7375Q37.628124 129.83125 37.1125 129.31563Q36.6125 128.78438 35.784374 128.78438Q35.284374 128.78438 34.8625 129.01875Q34.45625 129.25313 34.221874 129.6125L33.2375 129.4875L34.065624 125.08125L38.346874 125.08125L38.346874 126.08125L34.909374 126.08125L34.45625 128.39375Q35.221874 127.84688 36.065624 127.84688Q37.190624 127.84688 37.95625 128.62813Q38.7375 129.40938 38.7375 130.64375Q38.7375 131.8 38.065624 132.65938Q37.2375 133.69063 35.815624 133.69063Q34.64375 133.69063 33.89375 133.03438Q33.159374 132.37813 33.05 131.3Z" fill-rule="nonzero"/><path fill="#000000" d="M31.596874 64.90104L31.596874 65.916664L25.909374 65.916664Q25.909374 65.541664 26.034374 65.18229Q26.253124 64.604164 26.721874 64.041664Q27.20625 63.479164 28.1125 62.74479Q29.51875 61.58854 30.003124 60.916664Q30.503124 60.24479 30.503124 59.65104Q30.503124 59.02604 30.05 58.604164Q29.596874 58.166664 28.878124 58.166664Q28.1125 58.166664 27.659374 58.61979Q27.20625 59.072914 27.190624 59.885414L26.1125 59.77604Q26.221874 58.55729 26.940624 57.93229Q27.675 57.291664 28.909374 57.291664Q30.14375 57.291664 30.8625 57.979164Q31.58125 58.666664 31.58125 59.68229Q31.58125 60.197914 31.3625 60.697914Q31.159374 61.18229 30.659374 61.74479Q30.175 62.291664 29.05 63.24479Q28.096874 64.041664 27.815624 64.33854Q27.55 64.61979 27.378124 64.90104L31.596874 64.90104ZM33.05 61.68229Q33.05 60.15104 33.3625 59.229164Q33.675 58.291664 34.284374 57.791664Q34.909374 57.291664 35.846874 57.291664Q36.534374 57.291664 37.05 57.572914Q37.58125 57.854164 37.925 58.385414Q38.26875 58.90104 38.45625 59.65104Q38.64375 60.40104 38.64375 61.68229Q38.64375 63.197914 38.33125 64.11979Q38.034374 65.041664 37.409374 65.55729Q36.8 66.05729 35.846874 66.05729Q34.6125 66.05729 33.89375 65.166664Q33.05 64.104164 33.05 61.68229ZM34.128124 61.68229Q34.128124 63.791664 34.628124 64.49479Q35.128124 65.197914 35.846874 65.197914Q36.58125 65.197914 37.065624 64.49479Q37.565624 63.791664 37.565624 61.68229Q37.565624 59.55729 37.065624 58.86979Q36.58125 58.166664 35.83125 58.166664Q35.1125 58.166664 34.675 58.77604Q34.128124 59.55729 34.128124 61.68229Z" fill-rule="nonzero"/><path fill="#000000" d="M195.9631 349.45L199.25998 340.85626L200.47873 340.85626L203.99435 349.45L202.7131 349.45L201.69748 346.84064L198.11935 346.84064L197.16623 349.45L195.9631 349.45ZM198.44748 345.91876L201.35373 345.91876L200.4631 343.54376Q200.04123 342.46564 199.85373 341.7625Q199.68185 342.59064 199.38498 343.40314L198.44748 345.91876Z" fill-rule="nonzero"/><path fill="#000000" d="M424.39627 349.45L424.39627 340.85626L427.63065 340.85626Q428.61502 340.85626 429.20877 341.1219Q429.80252 341.3875 430.13065 341.9344Q430.4744 342.46564 430.4744 343.0594Q430.4744 343.60626 430.17752 344.09064Q429.88065 344.575 429.27127 344.8719Q430.05252 345.10626 430.45877 345.66876Q430.88065 346.21564 430.88065 346.96564Q430.88065 347.5594 430.63065 348.09064Q430.38065 348.60626 430.00565 348.8875Q429.63065 349.16876 429.05252 349.3094Q428.49002 349.45 427.67752 349.45L424.39627 349.45ZM425.5369 344.46564L427.39627 344.46564Q428.14627 344.46564 428.4744 344.3719Q428.9119 344.2469 429.13065 343.95Q429.3494 343.6375 429.3494 343.1844Q429.3494 342.7625 429.14627 342.4344Q428.94315 342.10626 428.55252 341.9969Q428.17752 341.8719 427.25565 341.8719L425.5369 341.8719L425.5369 344.46564ZM425.5369 348.4344L427.67752 348.4344Q428.2244 348.4344 428.44315 348.3875Q428.8494 348.325 429.0994 348.16876Q429.36502 347.9969 429.5369 347.6844Q429.70877 347.3719 429.70877 346.96564Q429.70877 346.48126 429.45877 346.1219Q429.2244 345.7625 428.7869 345.6219Q428.3494 345.48126 427.52127 345.48126L425.5369 345.48126L425.5369 348.4344Z" fill-rule="nonzero"/><path fill="#757575" d="M20.128124 23.2375L22.01875 23.2375L22.01875 29.503124Q23.315624 29.503124 23.846874 29.003124Q24.378124 28.503124 25.190624 26.58125Q25.784374 25.175 26.175 24.596874Q26.565624 24.01875 27.26875 23.628124Q27.9875 23.221874 28.846874 23.221874Q29.940624 23.221874 30.003124 23.2375L30.003124 24.878124Q29.89375 24.878124 29.6125 24.878124Q29.3 24.8625 29.2375 24.8625Q28.33125 24.8625 27.89375 25.3Q27.440624 25.7375 26.8625 27.175Q26.14375 28.9875 25.64375 29.471874Q25.14375 29.940624 24.45625 30.221874Q25.83125 30.6125 27.190624 32.784374L30.128124 37.55L27.784374 37.55L25.39375 33.659374Q24.39375 32.05 23.721874 31.45625Q23.065624 30.846874 22.01875 30.846874L22.01875 37.55L20.128124 37.55L20.128124 23.2375ZM32.721874 27.175L40.89375 27.175L40.89375 37.55L39.14375 37.55L39.14375 28.628124L34.4875 28.628124L34.4875 33.8Q34.4875 35.6125 34.3625 36.190624Q34.253124 36.753124 33.721874 37.190624Q33.190624 37.6125 32.20625 37.6125Q31.58125 37.6125 30.784374 37.534374L30.784374 36.08125L31.55 36.08125Q32.096874 36.08125 32.33125 35.971874Q32.565624 35.846874 32.64375 35.6125Q32.721874 35.3625 32.721874 34.01875L32.721874 27.175ZM42.8625 27.175L44.628124 27.175L44.628124 35.08125L49.503124 27.175L51.39375 27.175L51.39375 37.55L49.64375 37.55L49.64375 29.690624L44.76875 37.55L42.8625 37.55L42.8625 27.175ZM52.8625 27.175L54.6125 27.175L54.6125 31.659374Q55.45625 31.659374 55.784374 31.346874Q56.128124 31.01875 56.784374 29.45625Q57.3 28.2375 57.6125 27.846874Q57.940624 27.45625 58.3625 27.315624Q58.784374 27.175 59.721874 27.175L60.065624 27.175L60.065624 28.628124L59.58125 28.628124Q58.878124 28.628124 58.690624 28.83125Q58.4875 29.05 58.065624 30.1125Q57.659374 31.128124 57.33125 31.51875Q57.003124 31.909374 56.3 32.221874Q57.440624 32.534374 58.534374 34.33125L60.45625 37.55L58.51875 37.55L56.64375 34.33125Q56.065624 33.3625 55.628124 33.065624Q55.20625 32.753124 54.6125 32.753124L54.6125 37.55L52.8625 37.55L52.8625 27.175ZM61.8625 27.175L63.628124 27.175L63.628124 35.08125L68.50313 27.175L70.39375 27.175L70.39375 37.55L68.64375 37.55L68.64375 29.690624L63.76875 37.55L61.8625 37.55L61.8625 27.175ZM77.87813 27.175L86.06563 27.175L86.06563 37.55L84.3 37.55L84.3 28.628124L79.64375 28.628124L79.64375 37.55L77.87813 37.55L77.87813 27.175ZM87.22188 32.3625Q87.22188 29.4875 88.81563 28.096874Q90.15938 26.940624 92.08125 26.940624Q94.22188 26.940624 95.56563 28.346874Q96.925 29.753124 96.925 32.221874Q96.925 34.221874 96.33125 35.378124Q95.7375 36.51875 94.58125 37.159374Q93.44063 37.784374 92.08125 37.784374Q89.89375 37.784374 88.55 36.39375Q87.22188 34.9875 87.22188 32.3625ZM89.01875 32.3625Q89.01875 34.3625 89.87813 35.346874Q90.75313 36.33125 92.08125 36.33125Q93.39375 36.33125 94.25313 35.346874Q95.12813 34.346874 95.12813 32.3Q95.12813 30.378124 94.25313 29.39375Q93.37813 28.39375 92.08125 28.39375Q90.75313 28.39375 89.87813 29.39375Q89.01875 30.378124 89.01875 32.3625ZM104.87813 27.175L110.84688 27.175L110.84688 28.628124L106.64375 28.628124L106.64375 37.55L104.87813 37.55L104.87813 27.175ZM111.8625 41.51875L111.8625 27.175L113.47188 27.175L113.47188 28.51875Q114.03438 27.7375 114.7375 27.346874Q115.45625 26.940624 116.47188 26.940624Q117.8 26.940624 118.81563 27.628124Q119.83125 28.315624 120.34688 29.565624Q120.87813 30.8 120.87813 32.284374Q120.87813 33.878124 120.3 35.159374Q119.7375 36.425 118.64375 37.1125Q117.55 37.784374 116.34688 37.784374Q115.47188 37.784374 114.76875 37.409374Q114.08125 37.034374 113.62813 36.471874L113.62813 41.51875L111.8625 41.51875ZM113.45625 32.425Q113.45625 34.425 114.26875 35.378124Q115.08125 36.33125 116.2375 36.33125Q117.40938 36.33125 118.2375 35.346874Q119.08125 34.3625 119.08125 32.26875Q119.08125 30.3 118.25313 29.315624Q117.44063 28.315624 116.31563 28.315624Q115.19063 28.315624 114.31563 29.378124Q113.45625 30.425 113.45625 32.425ZM122.78438 41.55L122.59688 39.89375Q123.175 40.05 123.59688 40.05Q124.19063 40.05 124.53438 39.846874Q124.89375 39.659374 125.1125 39.315624Q125.28438 39.05 125.65938 38.003124Q125.70625 37.846874 125.81563 37.565624L121.87813 27.175L123.76875 27.175L125.925 33.190624Q126.34688 34.33125 126.675 35.58125Q126.9875 34.378124 127.39375 33.221874L129.6125 27.175L131.37813 27.175L127.425 37.721874Q126.8 39.440624 126.44063 40.08125Q125.97188 40.95625 125.3625 41.346874Q124.76875 41.753124 123.925 41.753124Q123.40938 41.753124 122.78438 41.55ZM132.87813 27.175L141.06563 27.175L141.06563 37.55L139.3 37.55L139.3 28.628124L134.64375 28.628124L134.64375 37.55L132.87813 37.55L132.87813 27.175ZM142.87813 27.175L151.06563 27.175L151.06563 37.55L149.3 37.55L149.3 28.628124L144.64375 28.628124L144.64375 37.55L142.87813 37.55L142.87813 27.175ZM159.64375 36.26875Q158.65938 37.096874 157.75313 37.440624Q156.84688 37.784374 155.81563 37.784374Q154.1125 37.784374 153.19063 36.95625Q152.26875 36.1125 152.26875 34.815624Q152.26875 34.05 152.6125 33.425Q152.97188 32.8 153.53438 32.425Q154.09688 32.034374 154.8 31.83125Q155.31563 31.70625 156.3625 31.565624Q158.4875 31.315624 159.4875 30.971874Q159.50313 30.6125 159.50313 30.503124Q159.50313 29.440624 159.00313 28.9875Q158.33125 28.39375 157.00313 28.39375Q155.75313 28.39375 155.15938 28.83125Q154.58125 29.26875 154.3 30.378124L152.58125 30.14375Q152.81563 29.034374 153.34688 28.3625Q153.87813 27.675 154.89375 27.315624Q155.90938 26.940624 157.25313 26.940624Q158.58125 26.940624 159.40938 27.253124Q160.2375 27.565624 160.62813 28.05Q161.01875 28.51875 161.175 29.2375Q161.26875 29.690624 161.26875 30.8625L161.26875 33.20625Q161.26875 35.659374 161.37813 36.315624Q161.4875 36.95625 161.83125 37.55L159.9875 37.55Q159.72188 37.003124 159.64375 36.26875ZM159.4875 32.346874Q158.53438 32.7375 156.6125 33.003124Q155.53438 33.159374 155.08125 33.3625Q154.64375 33.55 154.39375 33.925Q154.14375 34.3 154.14375 34.76875Q154.14375 35.471874 154.675 35.940624Q155.20625 36.409374 156.2375 36.409374Q157.25313 36.409374 158.03438 35.971874Q158.83125 35.51875 159.20625 34.753124Q159.4875 34.14375 159.4875 32.9875L159.4875 32.346874ZM163.925 27.175L166.65938 27.175L169.37813 35.471874L172.40938 27.175L174.94063 27.175L174.94063 37.55L173.175 37.55L173.175 29.20625L170.1125 37.55L168.53438 37.55L165.64375 28.8L165.64375 37.55L163.925 37.55L163.925 27.175Z" fill-rule="nonzero"/></svg>