<svg version="1.1" viewBox="0.0 0.0 600.0 371.0" fill="none" stroke="none" stroke-linecap="square" stroke-miterlimit="10" width="600" height="371" xmlns:xlink="http://www.w3.org/1999/xlink" xmlns="http://www.w3.org/2000/svg"><path fill="#ffffff" d="M0 0L600.0 0L600.0 371.0L0 371.0L0 0Z" fill-rule="nonzero"/><path stroke="#cccccc" stroke-width="1.0" stroke-linecap="butt" d="M45.5 332.5L581.5 332.5" fill-rule="nonzero"/><path stroke="#cccccc" stroke-width="1.0" stroke-linecap="butt" d="M45.5 278.5L581.5 278.5" fill-rule="nonzero"/><path stroke="#cccccc" stroke-width="1.0" stroke-linecap="butt" d="M45.5 224.5L581.5 224.5" fill-rule="nonzero"/><path stroke="#cccccc" stroke-width="1.0" stroke-linecap="butt" d="M45.5 170.5L581.5 170.5" fill-rule="nonzero"/><path stroke="#cccccc" stroke-width="1.0" stroke-linecap="butt" d="M45.5 116.5L581.5 116.5" fill-rule="nonzero"/><path stroke="#cccccc" stroke-width="1.0" stroke-linecap="butt" d="M45.5 61.5L581.5 61.5" fill-rule="nonzero"/><clipPath id="id_0"><path d="M45.55 61.916668L581.45 61.916668L581.45 332.45L45.55 332.45L45.55 61.916668Z" clip-rule="nonzero"/></clipPath><path stroke="#4285f4" stroke-width="2.0" stroke-linecap="butt" clip-path="url(#id_0)" d="M199.47873 170.13L199.47873 224.23666" fill-rule="nonzero"/><path stroke="#4285f4" stroke-width="2.0" stroke-linecap="butt" clip-path="url(#id_0)" d="M199.47873 278.34332L199.47873 197.18333" fill-rule="nonzero"/><path fill="#4285f4" clip-path="url(#id_0)" d="M124.36489 196.18333L274.59256 196.18333L274.59256 225.23666L124.36489 225.23666L124.36489 196.18333Z" fill-rule="nonzero"/><path stroke="#4285f4" stroke-width="2.0" stroke-linecap="butt" clip-path="url(#id_0)" d="M427.52127 61.916668L427.52127 251.29" fill-rule="nonzero"/><path stroke="#4285f4" stroke-width="2.0" stroke-linecap="butt" clip-path="url(#id_0)" d="M427.52127 332.45L427.52127 197.18333" fill-rule="nonzero"/><path fill="#4285f4" clip-path="url(#id_0)" d="M352.40744 196.18333L502.6351 196.18333L502.6351 252.29001L352.40744 252.29001L352.40744 196.18333Z" fill-rule="nonzero"/><path fill="#000000" d="M26.05 334.1844L27.1125 334.04376Q27.284374 334.9344 27.721874 335.34064Q28.159374 335.73126 28.784374 335.73126Q29.534374 335.73126 30.05 335.21564Q30.565624 334.7 30.565624 333.9344Q30.565624 333.21564 30.08125 332.7469Q29.6125 332.2625 28.878124 332.2625Q28.58125 332.2625 28.128124 332.3875L28.253124 331.45Q28.3625 331.46564 28.425 331.46564Q29.096874 331.46564 29.628124 331.1219Q30.175 330.7625 30.175 330.02814Q30.175 329.45 29.784374 329.075Q29.39375 328.6844 28.76875 328.6844Q28.159374 328.6844 27.7375 329.075Q27.33125 329.46564 27.221874 330.23126L26.159374 330.04376Q26.346874 328.9969 27.034374 328.41876Q27.721874 327.825 28.7375 327.825Q29.440624 327.825 30.034374 328.1375Q30.628124 328.4344 30.940624 328.95Q31.253124 329.46564 31.253124 330.0594Q31.253124 330.60626 30.95625 331.075Q30.659374 331.52814 30.08125 331.79376Q30.83125 331.96564 31.253124 332.52814Q31.675 333.075 31.675 333.91876Q31.675 335.04376 30.846874 335.825Q30.034374 336.60626 28.784374 336.60626Q27.659374 336.60626 26.909374 335.9344Q26.159374 335.2469 26.05 334.1844ZM33.05 332.21564Q33.05 330.6844 33.3625 329.7625Q33.675 328.825 34.284374 328.325Q34.909374 327.825 35.846874 327.825Q36.534374 327.825 37.05 328.10626Q37.58125 328.3875 37.925 328.91876Q38.26875 329.4344 38.45625 330.1844Q38.64375 330.9344 38.64375 332.21564Q38.64375 333.73126 38.33125 334.65314Q38.034374 335.575 37.409374 336.09064Q36.8 336.59064 35.846874 336.59064Q34.6125 336.59064 33.89375 335.7Q33.05 334.6375 33.05 332.21564ZM34.128124 332.21564Q34.128124 334.325 34.628124 335.02814Q35.128124 335.73126 35.846874 335.73126Q36.58125 335.73126 37.065624 335.02814Q37.565624 334.325 37.565624 332.21564Q37.565624 330.09064 37.065624 329.40314Q36.58125 328.7 35.83125 328.7Q35.1125 328.7 34.675 329.3094Q34.128124 330.09064 34.128124 332.21564Z" fill-rule="nonzero"/><path fill="#000000" d="M26.05 280.0777L27.1125 279.93707Q27.284374 280.8277 27.721874 281.23395Q28.159374 281.62457 28.784374 281.62457Q29.534374 281.62457 30.05 281.10895Q30.565624 280.59332 30.565624 279.8277Q30.565624 279.10895 30.08125 278.6402Q29.6125 278.15582 28.878124 278.15582Q28.58125 278.15582 28.128124 278.28082L28.253124 277.34332Q28.3625 277.35895 28.425 277.35895Q29.096874 277.35895 29.628124 277.0152Q30.175 276.65582 30.175 275.92145Q30.175 275.34332 29.784374 274.96832Q29.39375 274.5777 28.76875 274.5777Q28.159374 274.5777 27.7375 274.96832Q27.33125 275.35895 27.221874 276.12457L26.159374 275.93707Q26.346874 274.8902 27.034374 274.31207Q27.721874 273.71832 28.7375 273.71832Q29.440624 273.71832 30.034374 274.03082Q30.628124 274.3277 30.940624 274.84332Q31.253124 275.35895 31.253124 275.9527Q31.253124 276.49957 30.95625 276.96832Q30.659374 277.42145 30.08125 277.68707Q30.83125 277.85895 31.253124 278.42145Q31.675 278.96832 31.675 279.81207Q31.675 280.93707 30.846874 281.71832Q30.034374 282.49957 28.784374 282.49957Q27.659374 282.49957 26.909374 281.8277Q26.159374 281.1402 26.05 280.0777ZM38.596874 281.3277L38.596874 282.34332L32.909374 282.34332Q32.909374 281.96832 33.034374 281.60895Q33.253124 281.03082 33.721874 280.46832Q34.20625 279.90582 35.1125 279.17145Q36.51875 278.0152 37.003124 277.34332Q37.503124 276.67145 37.503124 276.0777Q37.503124 275.4527 37.05 275.03082Q36.596874 274.59332 35.878124 274.59332Q35.1125 274.59332 34.659374 275.04645Q34.20625 275.49957 34.190624 276.31207L33.1125 276.2027Q33.221874 274.98395 33.940624 274.35895Q34.675 273.71832 35.909374 273.71832Q37.14375 273.71832 37.8625 274.40582Q38.58125 275.09332 38.58125 276.10895Q38.58125 276.62457 38.3625 277.12457Q38.159374 277.60895 37.659374 278.17145Q37.175 278.71832 36.05 279.67145Q35.096874 280.46832 34.815624 280.7652Q34.55 281.04645 34.378124 281.3277L38.596874 281.3277Z" fill-rule="nonzero"/><path fill="#000000" d="M26.05 225.97104L27.1125 225.83041Q27.284374 226.72104 27.721874 227.12729Q28.159374 227.51791 28.784374 227.51791Q29.534374 227.51791 30.05 227.00229Q30.565624 226.48666 30.565624 225.72104Q30.565624 225.00229 30.08125 224.53354Q29.6125 224.04916 28.878124 224.04916Q28.58125 224.04916 28.128124 224.17416L28.253124 223.23666Q28.3625 223.25229 28.425 223.25229Q29.096874 223.25229 29.628124 222.90854Q30.175 222.54916 30.175 221.81479Q30.175 221.23666 29.784374 220.86166Q29.39375 220.47104 28.76875 220.47104Q28.159374 220.47104 27.7375 220.86166Q27.33125 221.25229 27.221874 222.01791L26.159374 221.83041Q26.346874 220.78354 27.034374 220.20541Q27.721874 219.61166 28.7375 219.61166Q29.440624 219.61166 30.034374 219.92416Q30.628124 220.22104 30.940624 220.73666Q31.253124 221.25229 31.253124 221.84604Q31.253124 222.39291 30.95625 222.86166Q30.659374 223.31479 30.08125 223.58041Q30.83125 223.75229 31.253124 224.31479Q31.675 224.86166 31.675 225.70541Q31.675 226.83041 30.846874 227.61166Q30.034374 228.39291 28.784374 228.39291Q27.659374 228.39291 26.909374 227.72104Q26.159374 227.03354 26.05 225.97104ZM36.425 228.23666L36.425 226.17416L32.70625 226.17416L32.70625 225.20541L36.628124 219.64291L37.4875 219.64291L37.4875 225.20541L38.64375 225.20541L38.64375 226.17416L37.4875 226.17416L37.4875 228.23666L36.425 228.23666ZM36.425 225.20541L36.425 221.34604L33.7375 225.20541L36.425 225.20541Z" fill-rule="nonzero"/><path fill="#000000" d="M26.05 171.86438L27.1125 171.72375Q27.284374 172.61438 27.721874 173.02063Q28.159374 173.41125 28.784374 173.41125Q29.534374 173.41125 30.05 172.89563Q30.565624 172.38 30.565624 171.61438Q30.565624 170.89563 30.08125 170.42688Q29.6125 169.9425 28.878124 169.9425Q28.58125 169.9425 28.128124 170.0675L28.253124 169.13Q28.3625 169.14563 28.425 169.14563Q29.096874 169.14563 29.628124 168.80188Q30.175 168.4425 30.175 167.70813Q30.175 167.13 29.784374 166.755Q29.39375 166.36438 28.76875 166.36438Q28.159374 166.36438 27.7375 166.755Q27.33125 167.14563 27.221874 167.91125L26.159374 167.72375Q26.346874 166.67688 27.034374 166.09875Q27.721874 165.505 28.7375 165.505Q29.440624 165.505 30.034374 165.8175Q30.628124 166.11438 30.940624 166.63Q31.253124 167.14563 31.253124 167.73938Q31.253124 168.28625 30.95625 168.755Q30.659374 169.20813 30.08125 169.47375Q30.83125 169.64563 31.253124 170.20813Q31.675 170.755 31.675 171.59875Q31.675 172.72375 30.846874 173.505Q30.034374 174.28625 28.784374 174.28625Q27.659374 174.28625 26.909374 173.61438Q26.159374 172.92688 26.05 171.86438ZM38.51875 167.64563L37.471874 167.72375Q37.33125 167.09875 37.08125 166.8175Q36.64375 166.36438 36.01875 166.36438Q35.51875 166.36438 35.128124 166.64563Q34.64375 167.02063 34.346874 167.72375Q34.065624 168.41125 34.05 169.6925Q34.425 169.11438 34.971874 168.83313Q35.534374 168.55188 36.14375 168.55188Q37.190624 168.55188 37.925 169.33313Q38.675 170.11438 38.675 171.33313Q38.675 172.14563 38.315624 172.84875Q37.971874 173.53625 37.3625 173.91125Q36.753124 174.27063 35.9875 174.27063Q34.659374 174.27063 33.83125 173.30188Q33.003124 172.33313 33.003124 170.11438Q33.003124 167.61438 33.925 166.48938Q34.721874 165.505 36.08125 165.505Q37.096874 165.505 37.7375 166.08313Q38.39375 166.64563 38.51875 167.64563ZM34.221874 171.34875Q34.221874 171.89563 34.440624 172.39563Q34.675 172.88 35.08125 173.14563Q35.503124 173.41125 35.971874 173.41125Q36.628124 173.41125 37.1125 172.88Q37.596874 172.33313 37.596874 171.41125Q37.596874 170.52063 37.1125 170.005Q36.64375 169.48938 35.925 169.48938Q35.20625 169.48938 34.70625 170.005Q34.221874 170.52063 34.221874 171.34875Z" fill-rule="nonzero"/><path fill="#000000" d="M26.05 117.757706L27.1125 117.61708Q27.284374 118.507706 27.721874 118.913956Q28.159374 119.30458 28.784374 119.30458Q29.534374 119.30458 30.05 118.788956Q30.565624 118.27333 30.565624 117.507706Q30.565624 116.788956 30.08125 116.320206Q29.6125 115.83583 28.878124 115.83583Q28.58125 115.83583 28.128124 115.96083L28.253124 115.02333Q28.3625 115.038956 28.425 115.038956Q29.096874 115.038956 29.628124 114.695206Q30.175 114.33583 30.175 113.601456Q30.175 113.02333 29.784374 112.64833Q29.39375 112.257706 28.76875 112.257706Q28.159374 112.257706 27.7375 112.64833Q27.33125 113.038956 27.221874 113.80458L26.159374 113.61708Q26.346874 112.570206 27.034374 111.99208Q27.721874 111.39833 28.7375 111.39833Q29.440624 111.39833 30.034374 111.71083Q30.628124 112.007706 30.940624 112.52333Q31.253124 113.038956 31.253124 113.632706Q31.253124 114.17958 30.95625 114.64833Q30.659374 115.101456 30.08125 115.36708Q30.83125 115.538956 31.253124 116.101456Q31.675 116.64833 31.675 117.49208Q31.675 118.61708 30.846874 119.39833Q30.034374 120.17958 28.784374 120.17958Q27.659374 120.17958 26.909374 119.507706Q26.159374 118.820206 26.05 117.757706ZM34.675 115.36708Q34.01875 115.11708 33.690624 114.67958Q33.378124 114.226456 33.378124 113.61708Q33.378124 112.67958 34.05 112.038956Q34.7375 111.39833 35.846874 111.39833Q36.971874 111.39833 37.659374 112.05458Q38.346874 112.71083 38.346874 113.64833Q38.346874 114.24208 38.034374 114.67958Q37.721874 115.11708 37.08125 115.36708Q37.878124 115.61708 38.284374 116.195206Q38.690624 116.77333 38.690624 117.570206Q38.690624 118.663956 37.909374 119.413956Q37.14375 120.163956 35.8625 120.163956Q34.596874 120.163956 33.815624 119.413956Q33.034374 118.663956 33.034374 117.538956Q33.034374 116.695206 33.45625 116.132706Q33.89375 115.570206 34.675 115.36708ZM34.45625 113.570206Q34.45625 114.17958 34.846874 114.570206Q35.253124 114.96083 35.878124 114.96083Q36.4875 114.96083 36.878124 114.58583Q37.26875 114.195206 37.26875 113.632706Q37.26875 113.05458 36.8625 112.663956Q36.45625 112.257706 35.8625 112.257706Q35.253124 112.257706 34.846874 112.64833Q34.45625 113.038956 34.45625 113.570206ZM34.128124 117.538956Q34.128124 117.99208 34.33125 118.413956Q34.55 118.83583 34.971874 119.070206Q35.39375 119.30458 35.878124 119.30458Q36.628124 119.30458 37.1125 118.820206Q37.6125 118.33583 37.6125 117.58583Q37.6125 116.820206 37.1125 116.320206Q36.6125 115.820206 35.846874 115.820206Q35.096874 115.820206 34.6125 116.320206Q34.128124 116.80458 34.128124 117.538956Z" fill-rule="nonzero"/><path fill="#000000" d="M29.425 65.916664L29.425 63.854164L25.70625 63.854164L25.70625 62.885414L29.628124 57.322914L30.4875 57.322914L30.4875 62.885414L31.64375 62.885414L31.64375 63.854164L30.4875 63.854164L30.4875 65.916664L29.425 65.916664ZM29.425 62.885414L29.425 59.02604L26.7375 62.885414L29.425 62.885414ZM33.05 61.68229Q33.05 60.15104 33.3625 59.229164Q33.675 58.291664 34.284374 57.791664Q34.909374 57.291664 35.846874 57.291664Q36.534374 57.291664 37.05 57.572914Q37.58125 57.854164 37.925 58.385414Q38.26875 58.90104 38.45625 59.65104Q38.64375 60.40104 38.64375 61.68229Q38.64375 63.197914 38.33125 64.11979Q38.034374 65.041664 37.409374 65.55729Q36.8 66.05729 35.846874 66.05729Q34.6125 66.05729 33.89375 65.166664Q33.05 64.104164 33.05 61.68229ZM34.128124 61.68229Q34.128124 63.791664 34.628124 64.49479Q35.128124 65.197914 35.846874 65.197914Q36.58125 65.197914 37.065624 64.49479Q37.565624 63.791664 37.565624 61.68229Q37.565624 59.55729 37.065624 58.86979Q36.58125 58.166664 35.83125 58.166664Q35.1125 58.166664 34.675 58.77604Q34.128124 59.55729 34.128124 61.68229Z" fill-rule="nonzero"/><path fill="#000000" d="M195.9631 349.45L199.25998 340.85626L200.47873 340.85626L203.99435 349.45L202.7131 349.45L201.69748 346.84064L198.11935 346.84064L197.16623 349.45L195.9631 349.45ZM198.44748 345.91876L201.35373 345.91876L200.4631 343.54376Q200.04123 342.46564 199.85373 341.7625Q199.68185 342.59064 199.38498 343.40314L198.44748 345.91876Z" fill-rule="nonzero"/><path fill="#000000" d="M424.39627 349.45L424.39627 340.85626L427.63065 340.85626Q428.61502 340.85626 429.20877 341.1219Q429.80252 341.3875 430.13065 341.9344Q430.4744 342.46564 430.4744 343.0594Q430.4744 343.60626 430.17752 344.09064Q429.88065 344.575 429.27127 344.8719Q430.05252 345.10626 430.45877 345.66876Q430.88065 346.21564 430.88065 346.96564Q430.88065 347.5594 430.63065 348.09064Q430.38065 348.60626 430.00565 348.8875Q429.63065 349.16876 429.05252 349.3094Q428.49002 349.45 427.67752 349.45L424.39627 349.45ZM425.5369 344.46564L427.39627 344.46564Q428.14627 344.46564 428.4744 344.3719Q428.9119 344.2469 429.13065 343.95Q429.3494 343.6375 429.3494 343.1844Q429.3494 342.7625 429.14627 342.4344Q428.94315 342.10626 428.55252 341.9969Q428.17752 341.8719 427.25565 341.8719L425.5369 341.8719L425.5369 344.46564ZM425.5369 348.4344L427.67752 348.4344Q428.2244 348.4344 428.44315 348.3875Q428.8494 348.325 429.0994 348.16876Q429.36502 347.9969 429.5369 347.6844Q429.70877 347.3719 429.70877 346.96564Q429.70877 346.48126 429.45877 346.1219Q429.2244 345.7625 428.7869 345.6219Q428.3494 345.48126 427.52127 345.48126L425.5369 345.48126L425.5369 348.4344Z" fill-rule="nonzero"/><path fill="#757575" d="M20.1125 23.2375L31.378124 23.2375L31.378124 37.55L29.471874 37.55L29.471874 24.925L22.003124 24.925L22.003124 37.55L20.1125 37.55L20.1125 23.2375ZM32.8625 41.51875L32.8625 27.175L34.471874 27.175L34.471874 28.51875Q35.034374 27.7375 35.7375 27.346874Q36.45625 26.940624 37.471874 26.940624Q38.8 26.940624 39.815624 27.628124Q40.83125 28.315624 41.346874 29.565624Q41.878124 30.8 41.878124 32.284374Q41.878124 33.878124 41.3 35.159374Q40.7375 36.425 39.64375 37.1125Q38.55 37.784374 37.346874 37.784374Q36.471874 37.784374 35.76875 37.409374Q35.08125 37.034374 34.628124 36.471874L34.628124 41.51875L32.8625 41.51875ZM34.45625 32.425Q34.45625 34.425 35.26875 35.378124Q36.08125 36.33125 37.2375 36.33125Q38.409374 36.33125 39.2375 35.346874Q40.08125 34.3625 40.08125 32.26875Q40.08125 30.3 39.253124 29.315624Q38.440624 28.315624 37.315624 28.315624Q36.190624 28.315624 35.315624 29.378124Q34.45625 30.425 34.45625 32.425ZM43.221874 32.3625Q43.221874 29.4875 44.815624 28.096874Q46.159374 26.940624 48.08125 26.940624Q50.221874 26.940624 51.565624 28.346874Q52.925 29.753124 52.925 32.221874Q52.925 34.221874 52.33125 35.378124Q51.7375 36.51875 50.58125 37.159374Q49.440624 37.784374 48.08125 37.784374Q45.89375 37.784374 44.55 36.39375Q43.221874 34.9875 43.221874 32.3625ZM45.01875 32.3625Q45.01875 34.3625 45.878124 35.346874Q46.753124 36.33125 48.08125 36.33125Q49.39375 36.33125 50.253124 35.346874Q51.128124 34.346874 51.128124 32.3Q51.128124 30.378124 50.253124 29.39375Q49.378124 28.39375 48.08125 28.39375Q46.753124 28.39375 45.878124 29.39375Q45.01875 30.378124 45.01875 32.3625ZM61.64375 33.753124L63.3625 33.971874Q63.08125 35.76875 61.909374 36.784374Q60.753124 37.784374 59.05 37.784374Q56.925 37.784374 55.628124 36.39375Q54.33125 35.003124 54.33125 32.409374Q54.33125 30.721874 54.878124 29.471874Q55.440624 28.20625 56.58125 27.58125Q57.721874 26.940624 59.065624 26.940624Q60.753124 26.940624 61.815624 27.8Q62.89375 28.659374 63.20625 30.221874L61.4875 30.4875Q61.253124 29.440624 60.628124 28.925Q60.003124 28.39375 59.128124 28.39375Q57.8 28.39375 56.971874 29.346874Q56.14375 30.3 56.14375 32.346874Q56.14375 34.440624 56.940624 35.39375Q57.7375 36.33125 59.034374 36.33125Q60.065624 36.33125 60.753124 35.70625Q61.45625 35.065624 61.64375 33.753124ZM64.925 27.175L67.65938 27.175L70.37813 35.471874L73.40938 27.175L75.94063 27.175L75.94063 37.55L74.175 37.55L74.175 29.20625L71.1125 37.55L69.53438 37.55L66.64375 28.8L66.64375 37.55L64.925 37.55L64.925 27.175ZM77.22188 32.3625Q77.22188 29.4875 78.81563 28.096874Q80.15938 26.940624 82.08125 26.940624Q84.22188 26.940624 85.56563 28.346874Q86.925 29.753124 86.925 32.221874Q86.925 34.221874 86.33125 35.378124Q85.7375 36.51875 84.58125 37.159374Q83.44063 37.784374 82.08125 37.784374Q79.89375 37.784374 78.55 36.39375Q77.22188 34.9875 77.22188 32.3625ZM79.01875 32.3625Q79.01875 34.3625 79.87813 35.346874Q80.75313 36.33125 82.08125 36.33125Q83.39375 36.33125 84.25313 35.346874Q85.12813 34.346874 85.12813 32.3Q85.12813 30.378124 84.25313 29.39375Q83.37813 28.39375 82.08125 28.39375Q80.75313 28.39375 79.87813 29.39375Q79.01875 30.378124 79.01875 32.3625ZM87.925 27.175L96.34688 27.175L96.34688 28.628124L93.00313 28.628124L93.00313 37.55L91.26875 37.55L91.26875 28.628124L87.925 28.628124L87.925 27.175ZM97.8625 41.51875L97.8625 27.175L99.47188 27.175L99.47188 28.51875Q100.03438 27.7375 100.7375 27.346874Q101.45625 26.940624 102.47188 26.940624Q103.8 26.940624 104.81563 27.628124Q105.83125 28.315624 106.34688 29.565624Q106.87813 30.8 106.87813 32.284374Q106.87813 33.878124 106.3 35.159374Q105.7375 36.425 104.64375 37.1125Q103.55 37.784374 102.34688 37.784374Q101.47188 37.784374 100.76875 37.409374Q100.08125 37.034374 99.62813 36.471874L99.62813 41.51875L97.8625 41.51875ZM99.45625 32.425Q99.45625 34.425 100.26875 35.378124Q101.08125 36.33125 102.2375 36.33125Q103.40938 36.33125 104.2375 35.346874Q105.08125 34.3625 105.08125 32.26875Q105.08125 30.3 104.25313 29.315624Q103.44063 28.315624 102.31563 28.315624Q101.19063 28.315624 100.31563 29.378124Q99.45625 30.425 99.45625 32.425ZM118.7375 27.175L120.50313 27.175L120.50313 37.55L118.7375 37.55L118.7375 27.175ZM108.90938 27.175L110.65938 27.175L110.65938 31.2375L112.89375 31.2375Q115.06563 31.2375 116.2375 32.08125Q117.425 32.925 117.425 34.409374Q117.425 35.70625 116.44063 36.628124Q115.45625 37.55 113.3 37.55L108.90938 37.55L108.90938 27.175ZM110.65938 36.096874L112.51875 36.096874Q114.175 36.096874 114.89375 35.690624Q115.6125 35.284374 115.6125 34.409374Q115.6125 33.7375 115.08125 33.221874Q114.55 32.690624 112.75313 32.690624L110.65938 32.690624L110.65938 36.096874ZM128.87813 27.175L137.06563 27.175L137.06563 37.55L135.3 37.55L135.3 28.628124L130.64375 28.628124L130.64375 37.55L128.87813 37.55L128.87813 27.175ZM138.22188 32.3625Q138.22188 29.4875 139.81563 28.096874Q141.15938 26.940624 143.08125 26.940624Q145.22188 26.940624 146.56563 28.346874Q147.925 29.753124 147.925 32.221874Q147.925 34.221874 147.33125 35.378124Q146.7375 36.51875 145.58125 37.159374Q144.44063 37.784374 143.08125 37.784374Q140.89375 37.784374 139.55 36.39375Q138.22188 34.9875 138.22188 32.3625ZM140.01875 32.3625Q140.01875 34.3625 140.87813 35.346874Q141.75313 36.33125 143.08125 36.33125Q144.39375 36.33125 145.25313 35.346874Q146.12813 34.346874 146.12813 32.3Q146.12813 30.378124 145.25313 29.39375Q144.37813 28.39375 143.08125 28.39375Q141.75313 28.39375 140.87813 29.39375Q140.01875 30.378124 140.01875 32.3625ZM155.87813 27.175L161.84688 27.175L161.84688 28.628124L157.64375 28.628124L157.64375 37.55L155.87813 37.55L155.87813 27.175ZM162.8625 41.51875L162.8625 27.175L164.47188 27.175L164.47188 28.51875Q165.03438 27.7375 165.7375 27.346874Q166.45625 26.940624 167.47188 26.940624Q168.8 26.940624 169.81563 27.628124Q170.83125 28.315624 171.34688 29.565624Q171.87813 30.8 171.87813 32.284374Q171.87813 33.878124 171.3 35.159374Q170.7375 36.425 169.64375 37.1125Q168.55 37.784374 167.34688 37.784374Q166.47188 37.784374 165.76875 37.409374Q165.08125 37.034374 164.62813 36.471874L164.62813 41.51875L162.8625 41.51875ZM164.45625 32.425Q164.45625 34.425 165.26875 35.378124Q166.08125 36.33125 167.2375 36.33125Q168.40938 36.33125 169.2375 35.346874Q170.08125 34.3625 170.08125 32.26875Q170.08125 30.3 169.25313 29.315624Q168.44063 28.315624 167.31563 28.315624Q166.19063 28.315624 165.31563 29.378124Q164.45625 30.425 164.45625 32.425ZM173.78438 41.55L173.59688 39.89375Q174.175 40.05 174.59688 40.05Q175.19063 40.05 175.53438 39.846874Q175.89375 39.659374 176.1125 39.315624Q176.28438 39.05 176.65938 38.003124Q176.70625 37.846874 176.81563 37.565624L172.87813 27.175L174.76875 27.175L176.925 33.190624Q177.34688 34.33125 177.675 35.58125Q177.9875 34.378124 178.39375 33.221874L180.6125 27.175L182.37813 27.175L178.425 37.721874Q177.8 39.440624 177.44063 40.08125Q176.97188 40.95625 176.3625 41.346874Q175.76875 41.753124 174.925 41.753124Q174.40938 41.753124 173.78438 41.55ZM183.87813 27.175L192.06563 27.175L192.06563 37.55L190.3 37.55L190.3 28.628124L185.64375 28.628124L185.64375 37.55L183.87813 37.55L183.87813 27.175ZM193.87813 27.175L202.06563 27.175L202.06563 37.55L200.3 37.55L200.3 28.628124L195.64375 28.628124L195.64375 37.55L193.87813 37.55L193.87813 27.175ZM210.64375 36.26875Q209.65938 37.096874 208.75313 37.440624Q207.84688 37.784374 206.81563 37.784374Q205.1125 37.784374 204.19063 36.95625Q203.26875 36.1125 203.26875 34.815624Q203.26875 34.05 203.6125 33.425Q203.97188 32.8 204.53438 32.425Q205.09688 32.034374 205.8 31.83125Q206.31563 31.70625 207.3625 31.565624Q209.4875 31.315624 210.4875 30.971874Q210.50313 30.6125 210.50313 30.503124Q210.50313 29.440624 210.00313 28.9875Q209.33125 28.39375 208.00313 28.39375Q206.75313 28.39375 206.15938 28.83125Q205.58125 29.26875 205.3 30.378124L203.58125 30.14375Q203.81563 29.034374 204.34688 28.3625Q204.87813 27.675 205.89375 27.315624Q206.90938 26.940624 208.25313 26.940624Q209.58125 26.940624 210.40938 27.253124Q211.2375 27.565624 211.62813 28.05Q212.01875 28.51875 212.175 29.2375Q212.26875 29.690624 212.26875 30.8625L212.26875 33.20625Q212.26875 35.659374 212.37813 36.315624Q212.4875 36.95625 212.83125 37.55L210.9875 37.55Q210.72188 37.003124 210.64375 36.26875ZM210.4875 32.346874Q209.53438 32.7375 207.6125 33.003124Q206.53438 33.159374 206.08125 33.3625Q205.64375 33.55 205.39375 33.925Q205.14375 34.3 205.14375 34.76875Q205.14375 35.471874 205.675 35.940624Q206.20625 36.409374 207.2375 36.409374Q208.25313 36.409374 209.03438 35.971874Q209.83125 35.51875 210.20625 34.753124Q210.4875 34.14375 210.4875 32.9875L210.4875 32.346874ZM214.925 27.175L217.65938 27.175L220.37813 35.471874L223.40938 27.175L225.94063 27.175L225.94063 37.55L224.175 37.55L224.175 29.20625L221.1125 37.55L219.53438 37.55L216.64375 28.8L216.64375 37.55L214.925 37.55L214.925 27.175Z" fill-rule="nonzero"/></svg>