<svg version="1.1" viewBox="0.0 0.0 600.0 371.0" fill="none" stroke="none" stroke-linecap="square" stroke-miterlimit="10" width="600" height="371" xmlns:xlink="http://www.w3.org/1999/xlink" xmlns="http://www.w3.org/2000/svg"><path fill="#ffffff" d="M0 0L600.0 0L600.0 371.0L0 371.0L0 0Z" fill-rule="nonzero"/><path stroke="#333333" stroke-width="1.0" stroke-linecap="butt" d="M52.5 332.5L581.5 332.5" fill-rule="nonzero"/><path stroke="#cccccc" stroke-width="1.0" stroke-linecap="butt" d="M52.5 264.5L581.5 264.5" fill-rule="nonzero"/><path stroke="#cccccc" stroke-width="1.0" stroke-linecap="butt" d="M52.5 197.5L581.5 197.5" fill-rule="nonzero"/><path stroke="#cccccc" stroke-width="1.0" stroke-linecap="butt" d="M52.5 129.5L581.5 129.5" fill-rule="nonzero"/><path stroke="#cccccc" stroke-width="1.0" stroke-linecap="butt" d="M52.5 61.5L581.5 61.5" fill-rule="nonzero"/><clipPath id="id_0"><path d="M52.55 61.916668L581.45 61.916668L581.45 332.45L52.55 332.45L52.55 61.916668Z" clip-rule="nonzero"/></clipPath><path stroke="#000000" stroke-width="2.0" stroke-linecap="butt" stroke-opacity="0.0" clip-path="url(#id_0)" d="M99.0 332.0L69.0 332.0L69.0 330.5C69.0 329.67157 69.67157 329.0 70.5 329.0L97.5 329.0C98.32843 329.0 99.0 329.67157 99.0 330.5Z" fill-rule="nonzero"/><path fill="#4285f4" clip-path="url(#id_0)" d="M99.0 332.0L69.0 332.0L69.0 330.5C69.0 329.67157 69.67157 329.0 70.5 329.0L97.5 329.0C98.32843 329.0 99.0 329.67157 99.0 330.5Z" fill-rule="nonzero"/><path stroke="#000000" stroke-width="2.0" stroke-linecap="butt" stroke-opacity="0.0" clip-path="url(#id_0)" d="M146.0 332.0L116.0 332.0L116.0 313.0C116.0 311.89542 116.89543 311.0 118.0 311.0L144.0 311.0C145.10457 311.0 146.0 311.89542 146.0 313.0Z" fill-rule="nonzero"/><path fill="#4285f4" clip-path="url(#id_0)" d="M146.0 332.0L116.0 332.0L116.0 313.0C116.0 311.89542 116.89543 311.0 118.0 311.0L144.0 311.0C145.10457 311.0 146.0 311.89542 146.0 313.0Z" fill-rule="nonzero"/><path stroke="#000000" stroke-width="2.0" stroke-linecap="butt" stroke-opacity="0.0" clip-path="url(#id_0)" d="M192.0 332.0L162.0 332.0L162.0 290.0C162.0 288.89542 162.89543 288.0 164.0 288.0L190.0 288.0C191.10457 288.0 192.0 288.89542 192.0 290.0Z" fill-rule="nonzero"/><path fill="#4285f4" clip-path="url(#id_0)" d="M192.0 332.0L162.0 332.0L162.0 290.0C162.0 288.89542 162.89543 288.0 164.0 288.0L190.0 288.0C191.10457 288.0 192.0 288.89542 192.0 290.0Z" fill-rule="nonzero"/><path stroke="#000000" stroke-width="2.0" stroke-linecap="butt" stroke-opacity="0.0" clip-path="url(#id_0)" d="M239.0 332.0L209.0 332.0L209.0 190.0C209.0 188.89543 209.89543 188.0 211.0 188.0L237.0 188.0C238.10457 188.0 239.0 188.89543 239.0 190.0Z" fill-rule="nonzero"/><path fill="#4285f4" clip-path="url(#id_0)" d="M239.0 332.0L209.0 332.0L209.0 190.0C209.0 188.89543 209.89543 188.0 211.0 188.0L237.0 188.0C238.10457 188.0 239.0 188.89543 239.0 190.0Z" fill-rule="nonzero"/><path stroke="#000000" stroke-width="2.0" stroke-linecap="butt" stroke-opacity="0.0" clip-path="url(#id_0)" d="M285.0 332.0L255.0 332.0L255.0 98.0C255.0 96.89543 255.89543 96.0 257.0 96.0L283.0 96.0C284.10458 96.0 285.0 96.89543 285.0 98.0Z" fill-rule="nonzero"/><path fill="#4285f4" clip-path="url(#id_0)" d="M285.0 332.0L255.0 332.0L255.0 98.0C255.0 96.89543 255.89543 96.0 257.0 96.0L283.0 96.0C284.10458 96.0 285.0 96.89543 285.0 98.0Z" fill-rule="nonzero"/><path stroke="#000000" stroke-width="2.0" stroke-linecap="butt" stroke-opacity="0.0" clip-path="url(#id_0)" d="M332.0 332.0L302.0 332.0L302.0 126.0C302.0 124.89543 302.89542 124.0 304.0 124.0L330.0 124.0C331.10458 124.0 332.0 124.89543 332.0 126.0Z" fill-rule="nonzero"/><path fill="#4285f4" clip-path="url(#id_0)" d="M332.0 332.0L302.0 332.0L302.0 126.0C302.0 124.89543 302.89542 124.0 304.0 124.0L330.0 124.0C331.10458 124.0 332.0 124.89543 332.0 126.0Z" fill-rule="nonzero"/><path stroke="#000000" stroke-width="2.0" stroke-linecap="butt" stroke-opacity="0.0" clip-path="url(#id_0)" d="M379.0 332.0L349.0 332.0L349.0 228.0C349.0 226.89543 349.89542 226.0 351.0 226.0L377.0 226.0C378.10458 226.0 379.0 226.89543 379.0 228.0Z" fill-rule="nonzero"/><path fill="#4285f4" clip-path="url(#id_0)" d="M379.0 332.0L349.0 332.0L349.0 228.0C349.0 226.89543 349.89542 226.0 351.0 226.0L377.0 226.0C378.10458 226.0 379.0 226.89543 379.0 228.0Z" fill-rule="nonzero"/><path stroke="#000000" stroke-width="2.0" stroke-linecap="butt" stroke-opacity="0.0" clip-path="url(#id_0)" d="M425.0 332.0L395.0 332.0L395.0 302.0C395.0 300.89542 395.89542 300.0 397.0 300.0L423.0 300.0C424.10458 300.0 425.0 300.89542 425.0 302.0Z" fill-rule="nonzero"/><path fill="#4285f4" clip-path="url(#id_0)" d="M425.0 332.0L395.0 332.0L395.0 302.0C395.0 300.89542 395.89542 300.0 397.0 300.0L423.0 300.0C424.10458 300.0 425.0 300.89542 425.0 302.0Z" fill-rule="nonzero"/><path stroke="#000000" stroke-width="2.0" stroke-linecap="butt" stroke-opacity="0.0" clip-path="url(#id_0)" d="M472.0 332.0L442.0 332.0L442.0 325.0C442.0 323.89542 442.89542 323.0 444.0 323.0L470.0 323.0C471.10458 323.0 472.0 323.89542 472.0 325.0Z" fill-rule="nonzero"/><path fill="#4285f4" clip-path="url(#id_0)" d="M472.0 332.0L442.0 332.0L442.0 325.0C442.0 323.89542 442.89542 323.0 444.0 323.0L470.0 323.0C471.10458 323.0 472.0 323.89542 472.0 325.0Z" fill-rule="nonzero"/><path stroke="#000000" stroke-width="2.0" stroke-linecap="butt" stroke-opacity="0.0" clip-path="url(#id_0)" d="M518.0 332.0L488.0 332.0L488.0 330.5C488.0 329.67157 488.67157 329.0 489.5 329.0L516.5 329.0C517.3284 329.0 518.0 329.67157 518.0 330.5Z" fill-rule="nonzero"/><path fill="#4285f4" clip-path="url(#id_0)" d="M518.0 332.0L488.0 332.0L488.0 330.5C488.0 329.67157 488.67157 329.0 489.5 329.0L516.5 329.0C517.3284 329.0 518.0 329.67157 518.0 330.5Z" fill-rule="nonzero"/><path stroke="#000000" stroke-width="2.0" stroke-linecap="butt" stroke-opacity="0.0" clip-path="url(#id_0)" d="M565.0 332.0L535.0 332.0L535.0 331.5C535.0 331.22385 535.2239 331.0 535.5 331.0L564.5 331.0C564.7761 331.0 565.0 331.22385 565.0 331.5Z" fill-rule="nonzero"/><path fill="#4285f4" clip-path="url(#id_0)" d="M565.0 332.0L535.0 332.0L535.0 331.5C535.0 331.22385 535.2239 331.0 535.5 331.0L564.5 331.0C564.7761 331.0 565.0 331.22385 565.0 331.5Z" fill-rule="nonzero"/><path fill="#000000" d="M40.05 332.21564Q40.05 330.6844 40.3625 329.7625Q40.675 328.825 41.284374 328.325Q41.909374 327.825 42.846874 327.825Q43.534374 327.825 44.05 328.10626Q44.58125 328.3875 44.925 328.91876Q45.26875 329.4344 45.45625 330.1844Q45.64375 330.9344 45.64375 332.21564Q45.64375 333.73126 45.33125 334.65314Q45.034374 335.575 44.409374 336.09064Q43.8 336.59064 42.846874 336.59064Q41.6125 336.59064 40.89375 335.7Q40.05 334.6375 40.05 332.21564ZM41.128124 332.21564Q41.128124 334.325 41.628124 335.02814Q42.128124 335.73126 42.846874 335.73126Q43.58125 335.73126 44.065624 335.02814Q44.565624 334.325 44.565624 332.21564Q44.565624 330.09064 44.065624 329.40314Q43.58125 328.7 42.83125 328.7Q42.1125 328.7 41.675 329.3094Q41.128124 330.09064 41.128124 332.21564Z" fill-rule="nonzero"/><path fill="#000000" d="M31.596874 267.80106L31.596874 268.81668L25.909374 268.81668Q25.909374 268.44168 26.034374 268.0823Q26.253124 267.50418 26.721874 266.94168Q27.20625 266.37918 28.1125 265.6448Q29.51875 264.48856 30.003124 263.81668Q30.503124 263.1448 30.503124 262.55106Q30.503124 261.92606 30.05 261.50418Q29.596874 261.06668 28.878124 261.06668Q28.1125 261.06668 27.659374 261.5198Q27.20625 261.97293 27.190624 262.78543L26.1125 262.67606Q26.221874 261.4573 26.940624 260.8323Q27.675 260.19168 28.909374 260.19168Q30.14375 260.19168 30.8625 260.87918Q31.58125 261.56668 31.58125 262.5823Q31.58125 263.09793 31.3625 263.59793Q31.159374 264.0823 30.659374 264.6448Q30.175 265.19168 29.05 266.1448Q28.096874 266.94168 27.815624 267.23856Q27.55 267.5198 27.378124 267.80106L31.596874 267.80106ZM33.05 266.56668L34.159374 266.47293Q34.284374 267.28543 34.721874 267.69168Q35.175 268.09793 35.815624 268.09793Q36.565624 268.09793 37.096874 267.5198Q37.628124 266.94168 37.628124 266.00418Q37.628124 265.09793 37.1125 264.5823Q36.6125 264.05106 35.784374 264.05106Q35.284374 264.05106 34.8625 264.28543Q34.45625 264.5198 34.221874 264.87918L33.2375 264.75418L34.065624 260.34793L38.346874 260.34793L38.346874 261.34793L34.909374 261.34793L34.45625 263.66043Q35.221874 263.11356 36.065624 263.11356Q37.190624 263.11356 37.95625 263.8948Q38.7375 264.67606 38.7375 265.91043Q38.7375 267.06668 38.065624 267.92606Q37.2375 268.9573 35.815624 268.9573Q34.64375 268.9573 33.89375 268.30106Q33.159374 267.6448 33.05 266.56668ZM40.05 264.5823Q40.05 263.05106 40.3625 262.12918Q40.675 261.19168 41.284374 260.69168Q41.909374 260.19168 42.846874 260.19168Q43.534374 260.19168 44.05 260.47293Q44.58125 260.75418 44.925 261.28543Q45.26875 261.80106 45.45625 262.55106Q45.64375 263.30106 45.64375 264.5823Q45.64375 266.09793 45.33125 267.0198Q45.034374 267.94168 44.409374 268.4573Q43.8 268.9573 42.846874 268.9573Q41.6125 268.9573 40.89375 268.06668Q40.05 267.00418 40.05 264.5823ZM41.128124 264.5823Q41.128124 266.69168 41.628124 267.3948Q42.128124 268.09793 42.846874 268.09793Q43.58125 268.09793 44.065624 267.3948Q44.565624 266.69168 44.565624 264.5823Q44.565624 262.4573 44.065624 261.7698Q43.58125 261.06668 42.83125 261.06668Q42.1125 261.06668 41.675 261.67606Q41.128124 262.4573 41.128124 264.5823Z" fill-rule="nonzero"/><path fill="#000000" d="M26.05 198.93333L27.159374 198.83958Q27.284374 199.65208 27.721874 200.05833Q28.175 200.46458 28.815624 200.46458Q29.565624 200.46458 30.096874 199.88646Q30.628124 199.30833 30.628124 198.37083Q30.628124 197.46458 30.1125 196.94896Q29.6125 196.41771 28.784374 196.41771Q28.284374 196.41771 27.8625 196.65208Q27.45625 196.88646 27.221874 197.24583L26.2375 197.12083L27.065624 192.71458L31.346874 192.71458L31.346874 193.71458L27.909374 193.71458L27.45625 196.02708Q28.221874 195.48021 29.065624 195.48021Q30.190624 195.48021 30.95625 196.26146Q31.7375 197.04271 31.7375 198.27708Q31.7375 199.43333 31.065624 200.29271Q30.2375 201.32396 28.815624 201.32396Q27.64375 201.32396 26.89375 200.66771Q26.159374 200.01146 26.05 198.93333ZM33.05 196.94896Q33.05 195.41771 33.3625 194.49583Q33.675 193.55833 34.284374 193.05833Q34.909374 192.55833 35.846874 192.55833Q36.534374 192.55833 37.05 192.83958Q37.58125 193.12083 37.925 193.65208Q38.26875 194.16771 38.45625 194.91771Q38.64375 195.66771 38.64375 196.94896Q38.64375 198.46458 38.33125 199.38646Q38.034374 200.30833 37.409374 200.82396Q36.8 201.32396 35.846874 201.32396Q34.6125 201.32396 33.89375 200.43333Q33.05 199.37083 33.05 196.94896ZM34.128124 196.94896Q34.128124 199.05833 34.628124 199.76146Q35.128124 200.46458 35.846874 200.46458Q36.58125 200.46458 37.065624 199.76146Q37.565624 199.05833 37.565624 196.94896Q37.565624 194.82396 37.065624 194.13646Q36.58125 193.43333 35.83125 193.43333Q35.1125 193.43333 34.675 194.04271Q34.128124 194.82396 34.128124 196.94896ZM40.05 196.94896Q40.05 195.41771 40.3625 194.49583Q40.675 193.55833 41.284374 193.05833Q41.909374 192.55833 42.846874 192.55833Q43.534374 192.55833 44.05 192.83958Q44.58125 193.12083 44.925 193.65208Q45.26875 194.16771 45.45625 194.91771Q45.64375 195.66771 45.64375 196.94896Q45.64375 198.46458 45.33125 199.38646Q45.034374 200.30833 44.409374 200.82396Q43.8 201.32396 42.846874 201.32396Q41.6125 201.32396 40.89375 200.43333Q40.05 199.37083 40.05 196.94896ZM41.128124 196.94896Q41.128124 199.05833 41.628124 199.76146Q42.128124 200.46458 42.846874 200.46458Q43.58125 200.46458 44.065624 199.76146Q44.565624 199.05833 44.565624 196.94896Q44.565624 194.82396 44.065624 194.13646Q43.58125 193.43333 42.83125 193.43333Q42.1125 193.43333 41.675 194.04271Q41.128124 194.82396 41.128124 196.94896Z" fill-rule="nonzero"/><path fill="#000000" d="M26.1125 126.08125L26.1125 125.06563L31.675 125.06563L31.675 125.89375Q30.8625 126.76875 30.05 128.22188Q29.253124 129.65938 28.815624 131.19063Q28.4875 132.26875 28.409374 133.55L27.315624 133.55Q27.33125 132.53438 27.70625 131.09688Q28.096874 129.65938 28.8 128.33125Q29.51875 127.00313 30.33125 126.08125L26.1125 126.08125ZM33.05 131.3L34.159374 131.20625Q34.284374 132.01875 34.721874 132.425Q35.175 132.83125 35.815624 132.83125Q36.565624 132.83125 37.096874 132.25313Q37.628124 131.675 37.628124 130.7375Q37.628124 129.83125 37.1125 129.31563Q36.6125 128.78438 35.784374 128.78438Q35.284374 128.78438 34.8625 129.01875Q34.45625 129.25313 34.221874 129.6125L33.2375 129.4875L34.065624 125.08125L38.346874 125.08125L38.346874 126.08125L34.909374 126.08125L34.45625 128.39375Q35.221874 127.84688 36.065624 127.84688Q37.190624 127.84688 37.95625 128.62813Q38.7375 129.40938 38.7375 130.64375Q38.7375 131.8 38.065624 132.65938Q37.2375 133.69063 35.815624 133.69063Q34.64375 133.69063 33.89375 133.03438Q33.159374 132.37813 33.05 131.3ZM40.05 129.31563Q40.05 127.78438 40.3625 126.8625Q40.675 125.925 41.284374 125.425Q41.909374 124.925 42.846874 124.925Q43.534374 124.925 44.05 125.20625Q44.58125 125.4875 44.925 126.01875Q45.26875 126.53438 45.45625 127.28438Q45.64375 128.03438 45.64375 129.31563Q45.64375 130.83125 45.33125 131.75313Q45.034374 132.675 44.409374 133.19063Q43.8 133.69063 42.846874 133.69063Q41.6125 133.69063 40.89375 132.8Q40.05 131.7375 40.05 129.31563ZM41.128124 129.31563Q41.128124 131.425 41.628124 132.12813Q42.128124 132.83125 42.846874 132.83125Q43.58125 132.83125 44.065624 132.12813Q44.565624 131.425 44.565624 129.31563Q44.565624 127.19063 44.065624 126.50313Q43.58125 125.8 42.83125 125.8Q42.1125 125.8 41.675 126.40938Q41.128124 127.19063 41.128124 129.31563Z" fill-rule="nonzero"/><path fill="#000000" d="M23.01875 65.916664L21.971874 65.916664L21.971874 59.197914Q21.58125 59.55729 20.95625 59.93229Q20.346874 60.291664 19.8625 60.46354L19.8625 59.447914Q20.7375 59.02604 21.39375 58.447914Q22.065624 57.854164 22.346874 57.291664L23.01875 57.291664L23.01875 65.916664ZM26.05 61.68229Q26.05 60.15104 26.3625 59.229164Q26.675 58.291664 27.284374 57.791664Q27.909374 57.291664 28.846874 57.291664Q29.534374 57.291664 30.05 57.572914Q30.58125 57.854164 30.925 58.385414Q31.26875 58.90104 31.45625 59.65104Q31.64375 60.40104 31.64375 61.68229Q31.64375 63.197914 31.33125 64.11979Q31.034374 65.041664 30.409374 65.55729Q29.8 66.05729 28.846874 66.05729Q27.6125 66.05729 26.89375 65.166664Q26.05 64.104164 26.05 61.68229ZM27.128124 61.68229Q27.128124 63.791664 27.628124 64.49479Q28.128124 65.197914 28.846874 65.197914Q29.58125 65.197914 30.065624 64.49479Q30.565624 63.791664 30.565624 61.68229Q30.565624 59.55729 30.065624 58.86979Q29.58125 58.166664 28.83125 58.166664Q28.1125 58.166664 27.675 58.77604Q27.128124 59.55729 27.128124 61.68229ZM33.05 61.68229Q33.05 60.15104 33.3625 59.229164Q33.675 58.291664 34.284374 57.791664Q34.909374 57.291664 35.846874 57.291664Q36.534374 57.291664 37.05 57.572914Q37.58125 57.854164 37.925 58.385414Q38.26875 58.90104 38.45625 59.65104Q38.64375 60.40104 38.64375 61.68229Q38.64375 63.197914 38.33125 64.11979Q38.034374 65.041664 37.409374 65.55729Q36.8 66.05729 35.846874 66.05729Q34.6125 66.05729 33.89375 65.166664Q33.05 64.104164 33.05 61.68229ZM34.128124 61.68229Q34.128124 63.791664 34.628124 64.49479Q35.128124 65.197914 35.846874 65.197914Q36.58125 65.197914 37.065624 64.49479Q37.565624 63.791664 37.565624 61.68229Q37.565624 59.55729 37.065624 58.86979Q36.58125 58.166664 35.83125 58.166664Q35.1125 58.166664 34.675 58.77604Q34.128124 59.55729 34.128124 61.68229ZM40.05 61.68229Q40.05 60.15104 40.3625 59.229164Q40.675 58.291664 41.284374 57.791664Q41.909374 57.291664 42.846874 57.291664Q43.534374 57.291664 44.05 57.572914Q44.58125 57.854164 44.925 58.385414Q45.26875 58.90104 45.45625 59.65104Q45.64375 60.40104 45.64375 61.68229Q45.64375 63.197914 45.33125 64.11979Q45.034374 65.041664 44.409374 65.55729Q43.8 66.05729 42.846874 66.05729Q41.6125 66.05729 40.89375 65.166664Q40.05 64.104164 40.05 61.68229ZM41.128124 61.68229Q41.128124 63.791664 41.628124 64.49479Q42.128124 65.197914 42.846874 65.197914Q43.58125 65.197914 44.065624 64.49479Q44.565624 63.791664 44.565624 61.68229Q44.565624 59.55729 44.065624 58.86979Q43.58125 58.166664 42.83125 58.166664Q42.1125 58.166664 41.675 58.77604Q41.128124 59.55729 41.128124 61.68229Z" fill-rule="nonzero"/><path fill="#000000" d="M77.5044 347.1844L78.5669 347.04376Q78.73878 347.9344 79.17628 348.34064Q79.61378 348.73126 80.23878 348.73126Q80.98878 348.73126 81.5044 348.21564Q82.02003 347.7 82.02003 346.9344Q82.02003 346.21564 81.53565 345.7469Q81.0669 345.2625 80.33253 345.2625Q80.03565 345.2625 79.58253 345.3875L79.70753 344.45Q79.8169 344.46564 79.8794 344.46564Q80.55128 344.46564 81.08253 344.1219Q81.6294 343.7625 81.6294 343.02814Q81.6294 342.45 81.23878 342.075Q80.84815 341.6844 80.22315 341.6844Q79.61378 341.6844 79.1919 342.075Q78.78565 342.46564 78.67628 343.23126L77.61378 343.04376Q77.80128 341.9969 78.48878 341.41876Q79.17628 340.825 80.1919 340.825Q80.89503 340.825 81.48878 341.1375Q82.08253 341.4344 82.39503 341.95Q82.70753 342.46564 82.70753 343.0594Q82.70753 343.60626 82.41065 344.075Q82.11378 344.52814 81.53565 344.79376Q82.28565 344.96564 82.70753 345.52814Q83.1294 346.075 83.1294 346.91876Q83.1294 348.04376 82.30128 348.825Q81.48878 349.60626 80.23878 349.60626Q79.11378 349.60626 78.36378 348.9344Q77.61378 348.2469 77.5044 347.1844ZM84.5044 345.21564Q84.5044 343.6844 84.8169 342.7625Q85.1294 341.825 85.73878 341.325Q86.36378 340.825 87.30128 340.825Q87.98878 340.825 88.5044 341.10626Q89.03565 341.3875 89.3794 341.91876Q89.72315 342.4344 89.91065 343.1844Q90.09815 343.9344 90.09815 345.21564Q90.09815 346.73126 89.78565 347.65314Q89.48878 348.575 88.86378 349.09064Q88.2544 349.59064 87.30128 349.59064Q86.0669 349.59064 85.34815 348.7Q84.5044 347.6375 84.5044 345.21564ZM85.58253 345.21564Q85.58253 347.325 86.08253 348.02814Q86.58253 348.73126 87.30128 348.73126Q88.03565 348.73126 88.52003 348.02814Q89.02003 347.325 89.02003 345.21564Q89.02003 343.09064 88.52003 342.40314Q88.03565 341.7 87.28565 341.7Q86.5669 341.7 86.1294 342.3094Q85.58253 343.09064 85.58253 345.21564Z" fill-rule="nonzero"/><path fill="#000000" d="M124.10352 347.1844L125.16602 347.04376Q125.3379 347.9344 125.7754 348.34064Q126.2129 348.73126 126.8379 348.73126Q127.5879 348.73126 128.10352 348.21564Q128.61914 347.7 128.61914 346.9344Q128.61914 346.21564 128.13477 345.7469Q127.66602 345.2625 126.93165 345.2625Q126.63477 345.2625 126.18165 345.3875L126.30665 344.45Q126.41602 344.46564 126.47852 344.46564Q127.1504 344.46564 127.68165 344.1219Q128.22852 343.7625 128.22852 343.02814Q128.22852 342.45 127.8379 342.075Q127.44727 341.6844 126.82227 341.6844Q126.2129 341.6844 125.79102 342.075Q125.38477 342.46564 125.2754 343.23126L124.2129 343.04376Q124.4004 341.9969 125.0879 341.41876Q125.7754 340.825 126.79102 340.825Q127.49415 340.825 128.08789 341.1375Q128.68164 341.4344 128.99414 341.95Q129.30664 342.46564 129.30664 343.0594Q129.30664 343.60626 129.00977 344.075Q128.71289 344.52814 128.13477 344.79376Q128.88477 344.96564 129.30664 345.52814Q129.72852 346.075 129.72852 346.91876Q129.72852 348.04376 128.90039 348.825Q128.08789 349.60626 126.8379 349.60626Q125.7129 349.60626 124.9629 348.9344Q124.2129 348.2469 124.10352 347.1844ZM135.07227 349.45L134.02539 349.45L134.02539 342.73126Q133.63477 343.09064 133.00977 343.46564Q132.40039 343.825 131.91602 343.9969L131.91602 342.98126Q132.79102 342.5594 133.44727 341.98126Q134.11914 341.3875 134.40039 340.825L135.07227 340.825L135.07227 349.45Z" fill-rule="nonzero"/><path fill="#000000" d="M170.70264 347.1844L171.76514 347.04376Q171.93701 347.9344 172.37451 348.34064Q172.81201 348.73126 173.43701 348.73126Q174.18701 348.73126 174.70264 348.21564Q175.21826 347.7 175.21826 346.9344Q175.21826 346.21564 174.73389 345.7469Q174.26514 345.2625 173.53076 345.2625Q173.23389 345.2625 172.78076 345.3875L172.90576 344.45Q173.01514 344.46564 173.07764 344.46564Q173.74951 344.46564 174.28076 344.1219Q174.82764 343.7625 174.82764 343.02814Q174.82764 342.45 174.43701 342.075Q174.04639 341.6844 173.42139 341.6844Q172.81201 341.6844 172.39014 342.075Q171.98389 342.46564 171.87451 343.23126L170.81201 343.04376Q170.99951 341.9969 171.68701 341.41876Q172.37451 340.825 173.39014 340.825Q174.09326 340.825 174.68701 341.1375Q175.28076 341.4344 175.59326 341.95Q175.90576 342.46564 175.90576 343.0594Q175.90576 343.60626 175.60889 344.075Q175.31201 344.52814 174.73389 344.79376Q175.48389 344.96564 175.90576 345.52814Q176.32764 346.075 176.32764 346.91876Q176.32764 348.04376 175.49951 348.825Q174.68701 349.60626 173.43701 349.60626Q172.31201 349.60626 171.56201 348.9344Q170.81201 348.2469 170.70264 347.1844ZM183.24951 348.4344L183.24951 349.45L177.56201 349.45Q177.56201 349.075 177.68701 348.71564Q177.90576 348.1375 178.37451 347.575Q178.85889 347.0125 179.76514 346.27814Q181.17139 345.1219 181.65576 344.45Q182.15576 343.77814 182.15576 343.1844Q182.15576 342.5594 181.70264 342.1375Q181.24951 341.7 180.53076 341.7Q179.76514 341.7 179.31201 342.15314Q178.85889 342.60626 178.84326 343.41876L177.76514 343.3094Q177.87451 342.09064 178.59326 341.46564Q179.32764 340.825 180.56201 340.825Q181.79639 340.825 182.51514 341.5125Q183.23389 342.2 183.23389 343.21564Q183.23389 343.73126 183.01514 344.23126Q182.81201 344.71564 182.31201 345.27814Q181.82764 345.825 180.70264 346.77814Q179.74951 347.575 179.46826 347.8719Q179.20264 348.15314 179.03076 348.4344L183.24951 348.4344Z" fill-rule="nonzero"/><path fill="#000000" d="M217.30176 347.1844L218.36426 347.04376Q218.53613 347.9344 218.97363 348.34064Q219.41113 348.73126 220.03613 348.73126Q220.78613 348.73126 221.30176 348.21564Q221.81738 347.7 221.81738 346.9344Q221.81738 346.21564 221.33301 345.7469Q220.86426 345.2625 220.12988 345.2625Q219.83301 345.2625 219.37988 345.3875L219.50488 344.45Q219.61426 344.46564 219.67676 344.46564Q220.34863 344.46564 220.87988 344.1219Q221.42676 343.7625 221.42676 343.02814Q221.42676 342.45 221.03613 342.075Q220.64551 341.6844 220.02051 341.6844Q219.41113 341.6844 218.98926 342.075Q218.58301 342.46564 218.47363 343.23126L217.41113 343.04376Q217.59863 341.9969 218.28613 341.41876Q218.97363 340.825 219.98926 340.825Q220.69238 340.825 221.28613 341.1375Q221.87988 341.4344 222.19238 341.95Q222.50488 342.46564 222.50488 343.0594Q222.50488 343.60626 222.20801 344.075Q221.91113 344.52814 221.33301 344.79376Q222.08301 344.96564 222.50488 345.52814Q222.92676 346.075 222.92676 346.91876Q222.92676 348.04376 222.09863 348.825Q221.28613 349.60626 220.03613 349.60626Q218.91113 349.60626 218.16113 348.9344Q217.41113 348.2469 217.30176 347.1844ZM224.30176 347.1844L225.36426 347.04376Q225.53613 347.9344 225.97363 348.34064Q226.41113 348.73126 227.03613 348.73126Q227.78613 348.73126 228.30176 348.21564Q228.81738 347.7 228.81738 346.9344Q228.81738 346.21564 228.33301 345.7469Q227.86426 345.2625 227.12988 345.2625Q226.83301 345.2625 226.37988 345.3875L226.50488 344.45Q226.61426 344.46564 226.67676 344.46564Q227.34863 344.46564 227.87988 344.1219Q228.42676 343.7625 228.42676 343.02814Q228.42676 342.45 228.03613 342.075Q227.64551 341.6844 227.02051 341.6844Q226.41113 341.6844 225.98926 342.075Q225.58301 342.46564 225.47363 343.23126L224.41113 343.04376Q224.59863 341.9969 225.28613 341.41876Q225.97363 340.825 226.98926 340.825Q227.69238 340.825 228.28613 341.1375Q228.87988 341.4344 229.19238 341.95Q229.50488 342.46564 229.50488 343.0594Q229.50488 343.60626 229.20801 344.075Q228.91113 344.52814 228.33301 344.79376Q229.08301 344.96564 229.50488 345.52814Q229.92676 346.075 229.92676 346.91876Q229.92676 348.04376 229.09863 348.825Q228.28613 349.60626 227.03613 349.60626Q225.91113 349.60626 225.16113 348.9344Q224.41113 348.2469 224.30176 347.1844Z" fill-rule="nonzero"/><path fill="#000000" d="M263.90088 347.1844L264.96338 347.04376Q265.13525 347.9344 265.57275 348.34064Q266.01025 348.73126 266.63525 348.73126Q267.38525 348.73126 267.90088 348.21564Q268.4165 347.7 268.4165 346.9344Q268.4165 346.21564 267.93213 345.7469Q267.46338 345.2625 266.729 345.2625Q266.43213 345.2625 265.979 345.3875L266.104 344.45Q266.21338 344.46564 266.27588 344.46564Q266.94775 344.46564 267.479 344.1219Q268.02588 343.7625 268.02588 343.02814Q268.02588 342.45 267.63525 342.075Q267.24463 341.6844 266.61963 341.6844Q266.01025 341.6844 265.58838 342.075Q265.18213 342.46564 265.07275 343.23126L264.01025 343.04376Q264.19775 341.9969 264.88525 341.41876Q265.57275 340.825 266.58838 340.825Q267.2915 340.825 267.88525 341.1375Q268.479 341.4344 268.7915 341.95Q269.104 342.46564 269.104 343.0594Q269.104 343.60626 268.80713 344.075Q268.51025 344.52814 267.93213 344.79376Q268.68213 344.96564 269.104 345.52814Q269.52588 346.075 269.52588 346.91876Q269.52588 348.04376 268.69775 348.825Q267.88525 349.60626 266.63525 349.60626Q265.51025 349.60626 264.76025 348.9344Q264.01025 348.2469 263.90088 347.1844ZM274.27588 349.45L274.27588 347.3875L270.55713 347.3875L270.55713 346.41876L274.479 340.85626L275.33838 340.85626L275.33838 346.41876L276.49463 346.41876L276.49463 347.3875L275.33838 347.3875L275.33838 349.45L274.27588 349.45ZM274.27588 346.41876L274.27588 342.5594L271.58838 346.41876L274.27588 346.41876Z" fill-rule="nonzero"/><path fill="#000000" d="M310.5 347.1844L311.5625 347.04376Q311.73438 347.9344 312.17188 348.34064Q312.60938 348.73126 313.23438 348.73126Q313.98438 348.73126 314.5 348.21564Q315.01562 347.7 315.01562 346.9344Q315.01562 346.21564 314.53125 345.7469Q314.0625 345.2625 313.32812 345.2625Q313.03125 345.2625 312.57812 345.3875L312.70312 344.45Q312.8125 344.46564 312.875 344.46564Q313.54688 344.46564 314.07812 344.1219Q314.625 343.7625 314.625 343.02814Q314.625 342.45 314.23438 342.075Q313.84375 341.6844 313.21875 341.6844Q312.60938 341.6844 312.1875 342.075Q311.78125 342.46564 311.67188 343.23126L310.60938 343.04376Q310.79688 341.9969 311.48438 341.41876Q312.17188 340.825 313.1875 340.825Q313.89062 340.825 314.48438 341.1375Q315.07812 341.4344 315.39062 341.95Q315.70312 342.46564 315.70312 343.0594Q315.70312 343.60626 315.40625 344.075Q315.10938 344.52814 314.53125 344.79376Q315.28125 344.96564 315.70312 345.52814Q316.125 346.075 316.125 346.91876Q316.125 348.04376 315.29688 348.825Q314.48438 349.60626 313.23438 349.60626Q312.10938 349.60626 311.35938 348.9344Q310.60938 348.2469 310.5 347.1844ZM317.5 347.2L318.60938 347.10626Q318.73438 347.91876 319.17188 348.325Q319.625 348.73126 320.26562 348.73126Q321.01562 348.73126 321.54688 348.15314Q322.07812 347.575 322.07812 346.6375Q322.07812 345.73126 321.5625 345.21564Q321.0625 344.6844 320.23438 344.6844Q319.73438 344.6844 319.3125 344.91876Q318.90625 345.15314 318.67188 345.5125L317.6875 345.3875L318.51562 340.98126L322.79688 340.98126L322.79688 341.98126L319.35938 341.98126L318.90625 344.29376Q319.67188 343.7469 320.51562 343.7469Q321.64062 343.7469 322.40625 344.52814Q323.1875 345.3094 323.1875 346.54376Q323.1875 347.7 322.51562 348.5594Q321.6875 349.59064 320.26562 349.59064Q319.09375 349.59064 318.34375 348.9344Q317.60938 348.27814 317.5 347.2Z" fill-rule="nonzero"/><path fill="#000000" d="M357.09912 347.1844L358.16162 347.04376Q358.3335 347.9344 358.771 348.34064Q359.2085 348.73126 359.8335 348.73126Q360.5835 348.73126 361.09912 348.21564Q361.61475 347.7 361.61475 346.9344Q361.61475 346.21564 361.13037 345.7469Q360.66162 345.2625 359.92725 345.2625Q359.63037 345.2625 359.17725 345.3875L359.30225 344.45Q359.41162 344.46564 359.47412 344.46564Q360.146 344.46564 360.67725 344.1219Q361.22412 343.7625 361.22412 343.02814Q361.22412 342.45 360.8335 342.075Q360.44287 341.6844 359.81787 341.6844Q359.2085 341.6844 358.78662 342.075Q358.38037 342.46564 358.271 343.23126L357.2085 343.04376Q357.396 341.9969 358.0835 341.41876Q358.771 340.825 359.78662 340.825Q360.48975 340.825 361.0835 341.1375Q361.67725 341.4344 361.98975 341.95Q362.30225 342.46564 362.30225 343.0594Q362.30225 343.60626 362.00537 344.075Q361.7085 344.52814 361.13037 344.79376Q361.88037 344.96564 362.30225 345.52814Q362.72412 346.075 362.72412 346.91876Q362.72412 348.04376 361.896 348.825Q361.0835 349.60626 359.8335 349.60626Q358.7085 349.60626 357.9585 348.9344Q357.2085 348.2469 357.09912 347.1844ZM369.56787 342.96564L368.521 343.04376Q368.38037 342.41876 368.13037 342.1375Q367.69287 341.6844 367.06787 341.6844Q366.56787 341.6844 366.17725 341.96564Q365.69287 342.34064 365.396 343.04376Q365.11475 343.73126 365.09912 345.0125Q365.47412 344.4344 366.021 344.15314Q366.5835 343.8719 367.19287 343.8719Q368.23975 343.8719 368.97412 344.65314Q369.72412 345.4344 369.72412 346.65314Q369.72412 347.46564 369.36475 348.16876Q369.021 348.85626 368.41162 349.23126Q367.80225 349.59064 367.03662 349.59064Q365.7085 349.59064 364.88037 348.6219Q364.05225 347.65314 364.05225 345.4344Q364.05225 342.9344 364.97412 341.8094Q365.771 340.825 367.13037 340.825Q368.146 340.825 368.78662 341.40314Q369.44287 341.96564 369.56787 342.96564ZM365.271 346.66876Q365.271 347.21564 365.48975 347.71564Q365.72412 348.2 366.13037 348.46564Q366.55225 348.73126 367.021 348.73126Q367.67725 348.73126 368.16162 348.2Q368.646 347.65314 368.646 346.73126Q368.646 345.84064 368.16162 345.325Q367.69287 344.8094 366.97412 344.8094Q366.25537 344.8094 365.75537 345.325Q365.271 345.84064 365.271 346.66876Z" fill-rule="nonzero"/><path fill="#000000" d="M403.69824 347.1844L404.76074 347.04376Q404.93262 347.9344 405.37012 348.34064Q405.80762 348.73126 406.43262 348.73126Q407.18262 348.73126 407.69824 348.21564Q408.21387 347.7 408.21387 346.9344Q408.21387 346.21564 407.7295 345.7469Q407.26074 345.2625 406.52637 345.2625Q406.2295 345.2625 405.77637 345.3875L405.90137 344.45Q406.01074 344.46564 406.07324 344.46564Q406.74512 344.46564 407.27637 344.1219Q407.82324 343.7625 407.82324 343.02814Q407.82324 342.45 407.43262 342.075Q407.042 341.6844 406.417 341.6844Q405.80762 341.6844 405.38574 342.075Q404.9795 342.46564 404.87012 343.23126L403.80762 343.04376Q403.99512 341.9969 404.68262 341.41876Q405.37012 340.825 406.38574 340.825Q407.08887 340.825 407.68262 341.1375Q408.27637 341.4344 408.58887 341.95Q408.90137 342.46564 408.90137 343.0594Q408.90137 343.60626 408.6045 344.075Q408.30762 344.52814 407.7295 344.79376Q408.4795 344.96564 408.90137 345.52814Q409.32324 346.075 409.32324 346.91876Q409.32324 348.04376 408.49512 348.825Q407.68262 349.60626 406.43262 349.60626Q405.30762 349.60626 404.55762 348.9344Q403.80762 348.2469 403.69824 347.1844ZM410.76074 341.98126L410.76074 340.96564L416.32324 340.96564L416.32324 341.79376Q415.51074 342.66876 414.69824 344.1219Q413.90137 345.5594 413.46387 347.09064Q413.13574 348.16876 413.05762 349.45L411.96387 349.45Q411.9795 348.4344 412.3545 346.9969Q412.74512 345.5594 413.44824 344.23126Q414.167 342.90314 414.9795 341.98126L410.76074 341.98126Z" fill-rule="nonzero"/><path fill="#000000" d="M450.29736 347.1844L451.35986 347.04376Q451.53174 347.9344 451.96924 348.34064Q452.40674 348.73126 453.03174 348.73126Q453.78174 348.73126 454.29736 348.21564Q454.813 347.7 454.813 346.9344Q454.813 346.21564 454.3286 345.7469Q453.85986 345.2625 453.1255 345.2625Q452.8286 345.2625 452.3755 345.3875L452.5005 344.45Q452.60986 344.46564 452.67236 344.46564Q453.34424 344.46564 453.8755 344.1219Q454.42236 343.7625 454.42236 343.02814Q454.42236 342.45 454.03174 342.075Q453.6411 341.6844 453.0161 341.6844Q452.40674 341.6844 451.98486 342.075Q451.5786 342.46564 451.46924 343.23126L450.40674 343.04376Q450.59424 341.9969 451.28174 341.41876Q451.96924 340.825 452.98486 340.825Q453.688 340.825 454.28174 341.1375Q454.8755 341.4344 455.188 341.95Q455.5005 342.46564 455.5005 343.0594Q455.5005 343.60626 455.2036 344.075Q454.90674 344.52814 454.3286 344.79376Q455.0786 344.96564 455.5005 345.52814Q455.92236 346.075 455.92236 346.91876Q455.92236 348.04376 455.09424 348.825Q454.28174 349.60626 453.03174 349.60626Q451.90674 349.60626 451.15674 348.9344Q450.40674 348.2469 450.29736 347.1844ZM458.92236 344.79376Q458.2661 344.54376 457.938 344.10626Q457.6255 343.65314 457.6255 343.04376Q457.6255 342.10626 458.29736 341.46564Q458.98486 340.825 460.09424 340.825Q461.21924 340.825 461.90674 341.48126Q462.59424 342.1375 462.59424 343.075Q462.59424 343.66876 462.28174 344.10626Q461.96924 344.54376 461.3286 344.79376Q462.1255 345.04376 462.53174 345.6219Q462.938 346.2 462.938 346.9969Q462.938 348.09064 462.15674 348.84064Q461.3911 349.59064 460.10986 349.59064Q458.84424 349.59064 458.063 348.84064Q457.28174 348.09064 457.28174 346.96564Q457.28174 346.1219 457.7036 345.5594Q458.1411 344.9969 458.92236 344.79376ZM458.7036 342.9969Q458.7036 343.60626 459.09424 343.9969Q459.5005 344.3875 460.1255 344.3875Q460.73486 344.3875 461.1255 344.0125Q461.5161 343.6219 461.5161 343.0594Q461.5161 342.48126 461.10986 342.09064Q460.7036 341.6844 460.10986 341.6844Q459.5005 341.6844 459.09424 342.075Q458.7036 342.46564 458.7036 342.9969ZM458.3755 346.96564Q458.3755 347.41876 458.5786 347.84064Q458.79736 348.2625 459.21924 348.4969Q459.6411 348.73126 460.1255 348.73126Q460.8755 348.73126 461.35986 348.2469Q461.85986 347.7625 461.85986 347.0125Q461.85986 346.2469 461.35986 345.7469Q460.85986 345.2469 460.09424 345.2469Q459.34424 345.2469 458.85986 345.7469Q458.3755 346.23126 458.3755 346.96564Z" fill-rule="nonzero"/><path fill="#000000" d="M496.89648 347.1844L497.95898 347.04376Q498.13086 347.9344 498.56836 348.34064Q499.00586 348.73126 499.63086 348.73126Q500.38086 348.73126 500.89648 348.21564Q501.4121 347.7 501.4121 346.9344Q501.4121 346.21564 500.92773 345.7469Q500.45898 345.2625 499.7246 345.2625Q499.42773 345.2625 498.9746 345.3875L499.0996 344.45Q499.20898 344.46564 499.27148 344.46564Q499.94336 344.46564 500.4746 344.1219Q501.02148 343.7625 501.02148 343.02814Q501.02148 342.45 500.63086 342.075Q500.24023 341.6844 499.61523 341.6844Q499.00586 341.6844 498.58398 342.075Q498.17773 342.46564 498.06836 343.23126L497.00586 343.04376Q497.19336 341.9969 497.88086 341.41876Q498.56836 340.825 499.58398 340.825Q500.2871 340.825 500.88086 341.1375Q501.4746 341.4344 501.7871 341.95Q502.0996 342.46564 502.0996 343.0594Q502.0996 343.60626 501.80273 344.075Q501.50586 344.52814 500.92773 344.79376Q501.67773 344.96564 502.0996 345.52814Q502.52148 346.075 502.52148 346.91876Q502.52148 348.04376 501.69336 348.825Q500.88086 349.60626 499.63086 349.60626Q498.50586 349.60626 497.75586 348.9344Q497.00586 348.2469 496.89648 347.1844ZM504.05273 347.46564L505.06836 347.3719Q505.19336 348.09064 505.55273 348.41876Q505.92773 348.73126 506.49023 348.73126Q506.9746 348.73126 507.33398 348.5125Q507.70898 348.27814 507.94336 347.91876Q508.17773 347.54376 508.33398 346.91876Q508.49023 346.27814 508.49023 345.6219Q508.49023 345.54376 508.49023 345.40314Q508.17773 345.90314 507.63086 346.23126Q507.08398 346.54376 506.44336 346.54376Q505.36523 346.54376 504.63086 345.77814Q503.89648 344.9969 503.89648 343.73126Q503.89648 342.41876 504.6621 341.6219Q505.44336 340.825 506.5996 340.825Q507.42773 340.825 508.11523 341.27814Q508.81836 341.73126 509.17773 342.575Q509.5371 343.40314 509.5371 344.98126Q509.5371 346.6219 509.17773 347.60626Q508.83398 348.575 508.11523 349.09064Q507.4121 349.59064 506.4746 349.59064Q505.45898 349.59064 504.81836 349.04376Q504.17773 348.48126 504.05273 347.46564ZM508.36523 343.66876Q508.36523 342.7625 507.88086 342.23126Q507.4121 341.7 506.7246 341.7Q506.02148 341.7 505.49023 342.27814Q504.9746 342.84064 504.9746 343.7625Q504.9746 344.575 505.4746 345.09064Q505.9746 345.60626 506.69336 345.60626Q507.42773 345.60626 507.89648 345.09064Q508.36523 344.575 508.36523 343.66876Z" fill-rule="nonzero"/><path fill="#000000" d="M546.8706 349.45L546.8706 347.3875L543.15186 347.3875L543.15186 346.41876L547.0737 340.85626L547.9331 340.85626L547.9331 346.41876L549.08936 346.41876L549.08936 347.3875L547.9331 347.3875L547.9331 349.45L546.8706 349.45ZM546.8706 346.41876L546.8706 342.5594L544.1831 346.41876L546.8706 346.41876ZM550.4956 345.21564Q550.4956 343.6844 550.8081 342.7625Q551.1206 341.825 551.73 341.325Q552.355 340.825 553.2925 340.825Q553.98 340.825 554.4956 341.10626Q555.02686 341.3875 555.3706 341.91876Q555.71436 342.4344 555.90186 343.1844Q556.08936 343.9344 556.08936 345.21564Q556.08936 346.73126 555.77686 347.65314Q555.48 348.575 554.855 349.09064Q554.2456 349.59064 553.2925 349.59064Q552.0581 349.59064 551.33936 348.7Q550.4956 347.6375 550.4956 345.21564ZM551.5737 345.21564Q551.5737 347.325 552.0737 348.02814Q552.5737 348.73126 553.2925 348.73126Q554.02686 348.73126 554.5112 348.02814Q555.0112 347.325 555.0112 345.21564Q555.0112 343.09064 554.5112 342.40314Q554.02686 341.7 553.27686 341.7Q552.5581 341.7 552.1206 342.3094Q551.5737 343.09064 551.5737 345.21564Z" fill-rule="nonzero"/><path fill="#757575" d="M29.01875 24.878124L22.159374 24.878124L22.159374 37.55L20.284374 37.55L20.284374 23.33125L29.01875 23.33125L29.01875 24.878124ZM37.753124 26.9875L39.565624 26.9875L39.565624 37.55L37.753124 37.55L37.753124 29.846874L32.878124 37.55L31.08125 37.55L31.08125 26.9875L32.878124 26.9875L32.878124 34.690624L37.753124 26.9875ZM47.159374 36.26875Q48.128124 36.26875 48.846874 35.690624Q49.565624 35.096874 49.64375 34.221874L51.3625 34.221874Q51.3 35.128124 50.721874 35.95625Q50.159374 36.76875 49.190624 37.26875Q48.2375 37.753124 47.159374 37.753124Q45.003124 37.753124 43.721874 36.315624Q42.45625 34.8625 42.45625 32.3625L42.45625 32.065624Q42.45625 30.51875 43.01875 29.315624Q43.58125 28.1125 44.64375 27.45625Q45.70625 26.784374 47.14375 26.784374Q48.925 26.784374 50.096874 27.846874Q51.284374 28.909374 51.3625 30.6125L49.64375 30.6125Q49.565624 29.596874 48.8625 28.940624Q48.175 28.26875 47.14375 28.26875Q45.76875 28.26875 45.003124 29.26875Q44.253124 30.253124 44.253124 32.128124L44.253124 32.471874Q44.253124 34.3 45.003124 35.284374Q45.753124 36.26875 47.159374 36.26875ZM60.76875 28.440624L57.221874 28.440624L57.221874 37.55L55.425 37.55L55.425 28.440624L51.940624 28.440624L51.940624 26.9875L60.76875 26.9875L60.76875 28.440624ZM62.440624 32.175Q62.440624 30.6125 63.05 29.378124Q63.659374 28.128124 64.7375 27.45625Q65.83125 26.784374 67.2375 26.784374Q69.39375 26.784374 70.72188 28.284374Q72.06563 29.76875 72.06563 32.253124L72.06563 32.378124Q72.06563 33.925 71.47188 35.159374Q70.87813 36.378124 69.76875 37.065624Q68.675 37.753124 67.25313 37.753124Q65.1125 37.753124 63.76875 36.253124Q62.440624 34.753124 62.440624 32.3L62.440624 32.175ZM64.25313 32.378124Q64.25313 34.14375 65.06563 35.20625Q65.89375 36.26875 67.25313 36.26875Q68.62813 36.26875 69.44063 35.190624Q70.25313 34.1125 70.25313 32.175Q70.25313 30.425 69.425 29.346874Q68.59688 28.26875 67.2375 28.26875Q65.89375 28.26875 65.06563 29.33125Q64.25313 30.39375 64.25313 32.378124ZM80.7375 28.471874L75.87813 28.471874L75.87813 37.55L74.05 37.55L74.05 26.9875L80.7375 26.9875L80.7375 28.471874ZM90.84688 32.378124Q90.84688 34.8 89.7375 36.284374Q88.64375 37.753124 86.75313 37.753124Q84.83125 37.753124 83.72188 36.51875L83.72188 41.6125L81.925 41.6125L81.925 26.9875L83.56563 26.9875L83.65938 28.159374Q84.75313 26.784374 86.72188 26.784374Q88.62813 26.784374 89.7375 28.221874Q90.84688 29.659374 90.84688 32.221874L90.84688 32.378124ZM89.03438 32.175Q89.03438 30.39375 88.26875 29.3625Q87.51875 28.315624 86.19063 28.315624Q84.55 28.315624 83.72188 29.76875L83.72188 34.83125Q84.53438 36.26875 86.20625 36.26875Q87.50313 36.26875 88.26875 35.2375Q89.03438 34.20625 89.03438 32.175ZM99.44063 37.55Q99.28438 37.2375 99.19063 36.440624Q97.925 37.753124 96.175 37.753124Q94.6125 37.753124 93.6125 36.8625Q92.6125 35.971874 92.6125 34.6125Q92.6125 32.971874 93.8625 32.065624Q95.12813 31.14375 97.39375 31.14375L99.15938 31.14375L99.15938 30.315624Q99.15938 29.3625 98.58125 28.8Q98.01875 28.2375 96.925 28.2375Q95.95625 28.2375 95.3 28.7375Q94.64375 29.221874 94.64375 29.909374L92.83125 29.909374Q92.83125 29.128124 93.39375 28.39375Q93.95625 27.64375 94.90938 27.221874Q95.87813 26.784374 97.03438 26.784374Q98.8625 26.784374 99.89375 27.70625Q100.925 28.6125 100.97188 30.221874L100.97188 35.08125Q100.97188 36.534374 101.33125 37.39375L101.33125 37.55L99.44063 37.55ZM96.44063 36.175Q97.3 36.175 98.05 35.7375Q98.81563 35.3 99.15938 34.596874L99.15938 32.425L97.7375 32.425Q94.425 32.425 94.425 34.3625Q94.425 35.221874 94.9875 35.70625Q95.55 36.175 96.44063 36.175ZM110.00313 35.159374L113.59688 26.9875L115.84688 26.9875L115.84688 37.55L114.05 37.55L114.05 29.8625L110.62813 37.55L109.37813 37.55L105.89375 29.690624L105.89375 37.55L104.08125 37.55L104.08125 26.9875L106.425 26.9875L110.00313 35.159374ZM125.00313 35.159374L128.59688 26.9875L130.84688 26.9875L130.84688 37.55L129.05 37.55L129.05 29.8625L125.62813 37.55L124.37813 37.55L120.89375 29.690624L120.89375 37.55L119.08125 37.55L119.08125 26.9875L121.425 26.9875L125.00313 35.159374ZM140.44063 37.55Q140.28438 37.2375 140.19063 36.440624Q138.925 37.753124 137.175 37.753124Q135.6125 37.753124 134.6125 36.8625Q133.6125 35.971874 133.6125 34.6125Q133.6125 32.971874 134.8625 32.065624Q136.12813 31.14375 138.39375 31.14375L140.15938 31.14375L140.15938 30.315624Q140.15938 29.3625 139.58125 28.8Q139.01875 28.2375 137.925 28.2375Q136.95625 28.2375 136.3 28.7375Q135.64375 29.221874 135.64375 29.909374L133.83125 29.909374Q133.83125 29.128124 134.39375 28.39375Q134.95625 27.64375 135.90938 27.221874Q136.87813 26.784374 138.03438 26.784374Q139.8625 26.784374 140.89375 27.70625Q141.925 28.6125 141.97188 30.221874L141.97188 35.08125Q141.97188 36.534374 142.33125 37.39375L142.33125 37.55L140.44063 37.55ZM137.44063 36.175Q138.3 36.175 139.05 35.7375Q139.81563 35.3 140.15938 34.596874L140.15938 32.425L138.7375 32.425Q135.425 32.425 135.425 34.3625Q135.425 35.221874 135.9875 35.70625Q136.55 36.175 137.44063 36.175ZM158.56563 37.55L156.75313 37.55L156.75313 28.471874L151.89375 28.471874L151.89375 37.55L150.08125 37.55L150.08125 26.9875L158.56563 26.9875L158.56563 37.55ZM161.44063 32.175Q161.44063 30.6125 162.05 29.378124Q162.65938 28.128124 163.7375 27.45625Q164.83125 26.784374 166.2375 26.784374Q168.39375 26.784374 169.72188 28.284374Q171.06563 29.76875 171.06563 32.253124L171.06563 32.378124Q171.06563 33.925 170.47188 35.159374Q169.87813 36.378124 168.76875 37.065624Q167.675 37.753124 166.25313 37.753124Q164.1125 37.753124 162.76875 36.253124Q161.44063 34.753124 161.44063 32.3L161.44063 32.175ZM163.25313 32.378124Q163.25313 34.14375 164.06563 35.20625Q164.89375 36.26875 166.25313 36.26875Q167.62813 36.26875 168.44063 35.190624Q169.25313 34.1125 169.25313 32.175Q169.25313 30.425 168.425 29.346874Q167.59688 28.26875 166.2375 28.26875Q164.89375 28.26875 164.06563 29.33125Q163.25313 30.39375 163.25313 32.378124ZM176.20625 33.05L174.89375 33.05L174.89375 37.55L173.08125 37.55L173.08125 26.9875L174.89375 26.9875L174.89375 31.45625L176.06563 31.45625L179.62813 26.9875L181.81563 26.9875L177.62813 32.065624L182.15938 37.55L179.87813 37.55L176.20625 33.05ZM190.44063 37.55Q190.28438 37.2375 190.19063 36.440624Q188.925 37.753124 187.175 37.753124Q185.6125 37.753124 184.6125 36.8625Q183.6125 35.971874 183.6125 34.6125Q183.6125 32.971874 184.8625 32.065624Q186.12813 31.14375 188.39375 31.14375L190.15938 31.14375L190.15938 30.315624Q190.15938 29.3625 189.58125 28.8Q189.01875 28.2375 187.925 28.2375Q186.95625 28.2375 186.3 28.7375Q185.64375 29.221874 185.64375 29.909374L183.83125 29.909374Q183.83125 29.128124 184.39375 28.39375Q184.95625 27.64375 185.90938 27.221874Q186.87813 26.784374 188.03438 26.784374Q189.8625 26.784374 190.89375 27.70625Q191.925 28.6125 191.97188 30.221874L191.97188 35.08125Q191.97188 36.534374 192.33125 37.39375L192.33125 37.55L190.44063 37.55ZM187.44063 36.175Q188.3 36.175 189.05 35.7375Q189.81563 35.3 190.15938 34.596874L190.15938 32.425L188.7375 32.425Q185.425 32.425 185.425 34.3625Q185.425 35.221874 185.9875 35.70625Q186.55 36.175 187.44063 36.175ZM200.72188 29.878124Q200.72188 29.128124 200.15938 28.70625Q199.59688 28.26875 198.6125 28.26875Q197.65938 28.26875 197.01875 28.76875Q196.37813 29.253124 196.37813 29.925L194.58125 29.925Q194.58125 28.55 195.72188 27.675Q196.87813 26.8 198.6125 26.8Q200.47188 26.8 201.50313 27.596874Q202.53438 28.39375 202.53438 29.8625Q202.53438 30.58125 202.09688 31.175Q201.675 31.76875 200.87813 32.1125Q202.7375 32.7375 202.7375 34.58125Q202.7375 36.034374 201.6125 36.89375Q200.4875 37.7375 198.6125 37.7375Q196.78438 37.7375 195.59688 36.846874Q194.40938 35.940624 194.40938 34.425L196.20625 34.425Q196.20625 35.190624 196.89375 35.753124Q197.58125 36.3 198.6125 36.3Q199.64375 36.3 200.26875 35.83125Q200.90938 35.346874 200.90938 34.58125Q200.90938 33.690624 200.37813 33.315624Q199.84688 32.925 198.72188 32.925L196.925 32.925L196.925 31.39375L198.87813 31.39375Q200.72188 31.346874 200.72188 29.878124ZM204.44063 32.175Q204.44063 30.6125 205.05 29.378124Q205.65938 28.128124 206.7375 27.45625Q207.83125 26.784374 209.2375 26.784374Q211.39375 26.784374 212.72188 28.284374Q214.06563 29.76875 214.06563 32.253124L214.06563 32.378124Q214.06563 33.925 213.47188 35.159374Q212.87813 36.378124 211.76875 37.065624Q210.675 37.753124 209.25313 37.753124Q207.1125 37.753124 205.76875 36.253124Q204.44063 34.753124 204.44063 32.3L204.44063 32.175ZM206.25313 32.378124Q206.25313 34.14375 207.06563 35.20625Q207.89375 36.26875 209.25313 36.26875Q210.62813 36.26875 211.44063 35.190624Q212.25313 34.1125 212.25313 32.175Q212.25313 30.425 211.425 29.346874Q210.59688 28.26875 209.2375 28.26875Q207.89375 28.26875 207.06563 29.33125Q206.25313 30.39375 206.25313 32.378124ZM216.08125 37.55L216.08125 26.9875L220.20625 26.9875Q222.31563 26.9875 223.44063 27.721874Q224.56563 28.45625 224.56563 29.878124Q224.56563 30.6125 224.12813 31.20625Q223.69063 31.8 222.83125 32.1125Q223.78438 32.33125 224.3625 32.9875Q224.95625 33.64375 224.95625 34.55Q224.95625 36.003124 223.87813 36.784374Q222.81563 37.55 220.8625 37.55L216.08125 37.55ZM217.89375 32.909374L217.89375 36.096874L220.87813 36.096874Q222.01875 36.096874 222.56563 35.675Q223.12813 35.253124 223.12813 34.4875Q223.12813 32.909374 220.81563 32.909374L217.89375 32.909374ZM217.89375 31.471874L220.22188 31.471874Q222.76875 31.471874 222.76875 29.9875Q222.76875 28.503124 220.3625 28.440624L217.89375 28.440624L217.89375 31.471874Z" fill-rule="nonzero"/></svg>