<svg version="1.1" viewBox="0.0 0.0 600.0 371.0" fill="none" stroke="none" stroke-linecap="square" stroke-miterlimit="10" width="600" height="371" xmlns:xlink="http://www.w3.org/1999/xlink" xmlns="http://www.w3.org/2000/svg"><path fill="#ffffff" d="M0 0L600.0 0L600.0 371.0L0 371.0L0 0Z" fill-rule="nonzero"/><path stroke="#333333" stroke-width="1.0" stroke-linecap="butt" d="M45.5 332.5L581.5 332.5" fill-rule="nonzero"/><path stroke="#cccccc" stroke-width="1.0" stroke-linecap="butt" d="M45.5 242.5L581.5 242.5" fill-rule="nonzero"/><path stroke="#cccccc" stroke-width="1.0" stroke-linecap="butt" d="M45.5 152.5L581.5 152.5" fill-rule="nonzero"/><path stroke="#cccccc" stroke-width="1.0" stroke-linecap="butt" d="M45.5 61.5L581.5 61.5" fill-rule="nonzero"/><clipPath id="id_0"><path d="M45.55 61.916668L581.45 61.916668L581.45 332.45L45.55 332.45L45.55 61.916668Z" clip-rule="nonzero"/></clipPath><path stroke="#000000" stroke-width="2.0" stroke-linecap="butt" stroke-opacity="0.0" clip-path="url(#id_0)" d="M72.0 332.0L55.0 332.0L55.0 331.5C55.0 331.22385 55.223858 331.0 55.5 331.0L71.5 331.0C71.776146 331.0 72.0 331.22385 72.0 331.5Z" fill-rule="nonzero"/><path fill="#4285f4" clip-path="url(#id_0)" d="M72.0 332.0L55.0 332.0L55.0 331.5C55.0 331.22385 55.223858 331.0 55.5 331.0L71.5 331.0C71.776146 331.0 72.0 331.22385 72.0 331.5Z" fill-rule="nonzero"/><path stroke="#000000" stroke-width="2.0" stroke-linecap="butt" stroke-opacity="0.0" clip-path="url(#id_0)" d="M99.0 332.0L82.0 332.0L82.0 328.0C82.0 326.89542 82.89543 326.0 84.0 326.0L97.0 326.0C98.10457 326.0 99.0 326.89542 99.0 328.0Z" fill-rule="nonzero"/><path fill="#4285f4" clip-path="url(#id_0)" d="M99.0 332.0L82.0 332.0L82.0 328.0C82.0 326.89542 82.89543 326.0 84.0 326.0L97.0 326.0C98.10457 326.0 99.0 326.89542 99.0 328.0Z" fill-rule="nonzero"/><path stroke="#000000" stroke-width="2.0" stroke-linecap="butt" stroke-opacity="0.0" clip-path="url(#id_0)" d="M125.0 332.0L108.0 332.0L108.0 307.0C108.0 305.89542 108.89543 305.0 110.0 305.0L123.0 305.0C124.10457 305.0 125.0 305.89542 125.0 307.0Z" fill-rule="nonzero"/><path fill="#4285f4" clip-path="url(#id_0)" d="M125.0 332.0L108.0 332.0L108.0 307.0C108.0 305.89542 108.89543 305.0 110.0 305.0L123.0 305.0C124.10457 305.0 125.0 305.89542 125.0 307.0Z" fill-rule="nonzero"/><path stroke="#000000" stroke-width="2.0" stroke-linecap="butt" stroke-opacity="0.0" clip-path="url(#id_0)" d="M151.0 332.0L134.0 332.0L134.0 265.0C134.0 263.89542 134.89543 263.0 136.0 263.0L149.0 263.0C150.10457 263.0 151.0 263.89542 151.0 265.0Z" fill-rule="nonzero"/><path fill="#4285f4" clip-path="url(#id_0)" d="M151.0 332.0L134.0 332.0L134.0 265.0C134.0 263.89542 134.89543 263.0 136.0 263.0L149.0 263.0C150.10457 263.0 151.0 263.89542 151.0 265.0Z" fill-rule="nonzero"/><path stroke="#000000" stroke-width="2.0" stroke-linecap="butt" stroke-opacity="0.0" clip-path="url(#id_0)" d="M178.0 332.0L161.0 332.0L161.0 210.0C161.0 208.89543 161.89543 208.0 163.0 208.0L176.0 208.0C177.10457 208.0 178.0 208.89543 178.0 210.0Z" fill-rule="nonzero"/><path fill="#4285f4" clip-path="url(#id_0)" d="M178.0 332.0L161.0 332.0L161.0 210.0C161.0 208.89543 161.89543 208.0 163.0 208.0L176.0 208.0C177.10457 208.0 178.0 208.89543 178.0 210.0Z" fill-rule="nonzero"/><path stroke="#000000" stroke-width="2.0" stroke-linecap="butt" stroke-opacity="0.0" clip-path="url(#id_0)" d="M204.0 332.0L187.0 332.0L187.0 146.0C187.0 144.89543 187.89543 144.0 189.0 144.0L202.0 144.0C203.10457 144.0 204.0 144.89543 204.0 146.0Z" fill-rule="nonzero"/><path fill="#4285f4" clip-path="url(#id_0)" d="M204.0 332.0L187.0 332.0L187.0 146.0C187.0 144.89543 187.89543 144.0 189.0 144.0L202.0 144.0C203.10457 144.0 204.0 144.89543 204.0 146.0Z" fill-rule="nonzero"/><path stroke="#000000" stroke-width="2.0" stroke-linecap="butt" stroke-opacity="0.0" clip-path="url(#id_0)" d="M230.0 332.0L213.0 332.0L213.0 118.0C213.0 116.89543 213.89543 116.0 215.0 116.0L228.0 116.0C229.10457 116.0 230.0 116.89543 230.0 118.0Z" fill-rule="nonzero"/><path fill="#4285f4" clip-path="url(#id_0)" d="M230.0 332.0L213.0 332.0L213.0 118.0C213.0 116.89543 213.89543 116.0 215.0 116.0L228.0 116.0C229.10457 116.0 230.0 116.89543 230.0 118.0Z" fill-rule="nonzero"/><path stroke="#000000" stroke-width="2.0" stroke-linecap="butt" stroke-opacity="0.0" clip-path="url(#id_0)" d="M257.0 332.0L240.0 332.0L240.0 98.0C240.0 96.89543 240.89543 96.0 242.0 96.0L255.0 96.0C256.10458 96.0 257.0 96.89543 257.0 98.0Z" fill-rule="nonzero"/><path fill="#4285f4" clip-path="url(#id_0)" d="M257.0 332.0L240.0 332.0L240.0 98.0C240.0 96.89543 240.89543 96.0 242.0 96.0L255.0 96.0C256.10458 96.0 257.0 96.89543 257.0 98.0Z" fill-rule="nonzero"/><path stroke="#000000" stroke-width="2.0" stroke-linecap="butt" stroke-opacity="0.0" clip-path="url(#id_0)" d="M283.0 332.0L266.0 332.0L266.0 146.0C266.0 144.89543 266.89542 144.0 268.0 144.0L281.0 144.0C282.10458 144.0 283.0 144.89543 283.0 146.0Z" fill-rule="nonzero"/><path fill="#4285f4" clip-path="url(#id_0)" d="M283.0 332.0L266.0 332.0L266.0 146.0C266.0 144.89543 266.89542 144.0 268.0 144.0L281.0 144.0C282.10458 144.0 283.0 144.89543 283.0 146.0Z" fill-rule="nonzero"/><path stroke="#000000" stroke-width="2.0" stroke-linecap="butt" stroke-opacity="0.0" clip-path="url(#id_0)" d="M309.0 332.0L292.0 332.0L292.0 211.0C292.0 209.89543 292.89542 209.0 294.0 209.0L307.0 209.0C308.10458 209.0 309.0 209.89543 309.0 211.0Z" fill-rule="nonzero"/><path fill="#4285f4" clip-path="url(#id_0)" d="M309.0 332.0L292.0 332.0L292.0 211.0C292.0 209.89543 292.89542 209.0 294.0 209.0L307.0 209.0C308.10458 209.0 309.0 209.89543 309.0 211.0Z" fill-rule="nonzero"/><path stroke="#000000" stroke-width="2.0" stroke-linecap="butt" stroke-opacity="0.0" clip-path="url(#id_0)" d="M336.0 332.0L319.0 332.0L319.0 249.0C319.0 247.89543 319.89542 247.0 321.0 247.0L334.0 247.0C335.10458 247.0 336.0 247.89543 336.0 249.0Z" fill-rule="nonzero"/><path fill="#4285f4" clip-path="url(#id_0)" d="M336.0 332.0L319.0 332.0L319.0 249.0C319.0 247.89543 319.89542 247.0 321.0 247.0L334.0 247.0C335.10458 247.0 336.0 247.89543 336.0 249.0Z" fill-rule="nonzero"/><path stroke="#000000" stroke-width="2.0" stroke-linecap="butt" stroke-opacity="0.0" clip-path="url(#id_0)" d="M362.0 332.0L345.0 332.0L345.0 288.0C345.0 286.89542 345.89542 286.0 347.0 286.0L360.0 286.0C361.10458 286.0 362.0 286.89542 362.0 288.0Z" fill-rule="nonzero"/><path fill="#4285f4" clip-path="url(#id_0)" d="M362.0 332.0L345.0 332.0L345.0 288.0C345.0 286.89542 345.89542 286.0 347.0 286.0L360.0 286.0C361.10458 286.0 362.0 286.89542 362.0 288.0Z" fill-rule="nonzero"/><path stroke="#000000" stroke-width="2.0" stroke-linecap="butt" stroke-opacity="0.0" clip-path="url(#id_0)" d="M388.0 332.0L371.0 332.0L371.0 314.0C371.0 312.89542 371.89542 312.0 373.0 312.0L386.0 312.0C387.10458 312.0 388.0 312.89542 388.0 314.0Z" fill-rule="nonzero"/><path fill="#4285f4" clip-path="url(#id_0)" d="M388.0 332.0L371.0 332.0L371.0 314.0C371.0 312.89542 371.89542 312.0 373.0 312.0L386.0 312.0C387.10458 312.0 388.0 312.89542 388.0 314.0Z" fill-rule="nonzero"/><path stroke="#000000" stroke-width="2.0" stroke-linecap="butt" stroke-opacity="0.0" clip-path="url(#id_0)" d="M415.0 332.0L398.0 332.0L398.0 327.0C398.0 325.89542 398.89542 325.0 400.0 325.0L413.0 325.0C414.10458 325.0 415.0 325.89542 415.0 327.0Z" fill-rule="nonzero"/><path fill="#4285f4" clip-path="url(#id_0)" d="M415.0 332.0L398.0 332.0L398.0 327.0C398.0 325.89542 398.89542 325.0 400.0 325.0L413.0 325.0C414.10458 325.0 415.0 325.89542 415.0 327.0Z" fill-rule="nonzero"/><path stroke="#000000" stroke-width="2.0" stroke-linecap="butt" stroke-opacity="0.0" clip-path="url(#id_0)" d="M441.0 332.0L424.0 332.0L424.0 331.0C424.0 330.44772 424.44772 330.0 425.0 330.0L440.0 330.0C440.55228 330.0 441.0 330.44772 441.0 331.0Z" fill-rule="nonzero"/><path fill="#4285f4" clip-path="url(#id_0)" d="M441.0 332.0L424.0 332.0L424.0 331.0C424.0 330.44772 424.44772 330.0 425.0 330.0L440.0 330.0C440.55228 330.0 441.0 330.44772 441.0 331.0Z" fill-rule="nonzero"/><path stroke="#000000" stroke-width="2.0" stroke-linecap="butt" stroke-opacity="0.0" clip-path="url(#id_0)" d="M467.0 332.0L450.0 332.0L450.0 331.5C450.0 331.22385 450.22385 331.0 450.5 331.0L466.5 331.0C466.77615 331.0 467.0 331.22385 467.0 331.5Z" fill-rule="nonzero"/><path fill="#4285f4" clip-path="url(#id_0)" d="M467.0 332.0L450.0 332.0L450.0 331.5C450.0 331.22385 450.22385 331.0 450.5 331.0L466.5 331.0C466.77615 331.0 467.0 331.22385 467.0 331.5Z" fill-rule="nonzero"/><path stroke="#000000" stroke-width="2.0" stroke-linecap="butt" stroke-opacity="0.0" clip-path="url(#id_0)" d="M494.0 332.0L477.0 332.0L477.0 332.0C477.0 332.0 477.0 332.0 477.0 332.0L494.0 332.0C494.0 332.0 494.0 332.0 494.0 332.0Z" fill-rule="nonzero"/><path fill="#4285f4" clip-path="url(#id_0)" d="M494.0 332.0L477.0 332.0L477.0 332.0C477.0 332.0 477.0 332.0 477.0 332.0L494.0 332.0C494.0 332.0 494.0 332.0 494.0 332.0Z" fill-rule="nonzero"/><path stroke="#000000" stroke-width="2.0" stroke-linecap="butt" stroke-opacity="0.0" clip-path="url(#id_0)" d="M520.0 332.0L503.0 332.0L503.0 331.5C503.0 331.22385 503.22385 331.0 503.5 331.0L519.5 331.0C519.7761 331.0 520.0 331.22385 520.0 331.5Z" fill-rule="nonzero"/><path fill="#4285f4" clip-path="url(#id_0)" d="M520.0 332.0L503.0 332.0L503.0 331.5C503.0 331.22385 503.22385 331.0 503.5 331.0L519.5 331.0C519.7761 331.0 520.0 331.22385 520.0 331.5Z" fill-rule="nonzero"/><path stroke="#000000" stroke-width="2.0" stroke-linecap="butt" stroke-opacity="0.0" clip-path="url(#id_0)" d="M546.0 332.0L529.0 332.0L529.0 331.0C529.0 330.44772 529.4477 330.0 530.0 330.0L545.0 330.0C545.5523 330.0 546.0 330.44772 546.0 331.0Z" fill-rule="nonzero"/><path fill="#4285f4" clip-path="url(#id_0)" d="M546.0 332.0L529.0 332.0L529.0 331.0C529.0 330.44772 529.4477 330.0 530.0 330.0L545.0 330.0C545.5523 330.0 546.0 330.44772 546.0 331.0Z" fill-rule="nonzero"/><path stroke="#000000" stroke-width="2.0" stroke-linecap="butt" stroke-opacity="0.0" clip-path="url(#id_0)" d="M573.0 332.0L556.0 332.0L556.0 331.5C556.0 331.22385 556.2239 331.0 556.5 331.0L572.5 331.0C572.7761 331.0 573.0 331.22385 573.0 331.5Z" fill-rule="nonzero"/><path fill="#4285f4" clip-path="url(#id_0)" d="M573.0 332.0L556.0 332.0L556.0 331.5C556.0 331.22385 556.2239 331.0 556.5 331.0L572.5 331.0C572.7761 331.0 573.0 331.22385 573.0 331.5Z" fill-rule="nonzero"/><path fill="#000000" d="M33.05 332.21564Q33.05 330.6844 33.3625 329.7625Q33.675 328.825 34.284374 328.325Q34.909374 327.825 35.846874 327.825Q36.534374 327.825 37.05 328.10626Q37.58125 328.3875 37.925 328.91876Q38.26875 329.4344 38.45625 330.1844Q38.64375 330.9344 38.64375 332.21564Q38.64375 333.73126 38.33125 334.65314Q38.034374 335.575 37.409374 336.09064Q36.8 336.59064 35.846874 336.59064Q34.6125 336.59064 33.89375 335.7Q33.05 334.6375 33.05 332.21564ZM34.128124 332.21564Q34.128124 334.325 34.628124 335.02814Q35.128124 335.73126 35.846874 335.73126Q36.58125 335.73126 37.065624 335.02814Q37.565624 334.325 37.565624 332.21564Q37.565624 330.09064 37.065624 329.40314Q36.58125 328.7 35.83125 328.7Q35.1125 328.7 34.675 329.3094Q34.128124 330.09064 34.128124 332.21564Z" fill-rule="nonzero"/><path fill="#000000" d="M24.596874 245.25659L24.596874 246.27222L18.909374 246.27222Q18.909374 245.89722 19.034374 245.53784Q19.253124 244.95972 19.721874 244.39722Q20.20625 243.83472 21.1125 243.10034Q22.51875 241.94409 23.003124 241.27222Q23.503124 240.60034 23.503124 240.00659Q23.503124 239.38159 23.05 238.95972Q22.596874 238.52222 21.878124 238.52222Q21.1125 238.52222 20.659374 238.97534Q20.20625 239.42847 20.190624 240.24097L19.1125 240.13159Q19.221874 238.91284 19.940624 238.28784Q20.675 237.64722 21.909374 237.64722Q23.14375 237.64722 23.8625 238.33472Q24.58125 239.02222 24.58125 240.03784Q24.58125 240.55347 24.3625 241.05347Q24.159374 241.53784 23.659374 242.10034Q23.175 242.64722 22.05 243.60034Q21.096874 244.39722 20.815624 244.69409Q20.55 244.97534 20.378124 245.25659L24.596874 245.25659ZM26.05 242.03784Q26.05 240.50659 26.3625 239.58472Q26.675 238.64722 27.284374 238.14722Q27.909374 237.64722 28.846874 237.64722Q29.534374 237.64722 30.05 237.92847Q30.58125 238.20972 30.925 238.74097Q31.26875 239.25659 31.45625 240.00659Q31.64375 240.75659 31.64375 242.03784Q31.64375 243.55347 31.33125 244.47534Q31.034374 245.39722 30.409374 245.91284Q29.8 246.41284 28.846874 246.41284Q27.6125 246.41284 26.89375 245.52222Q26.05 244.45972 26.05 242.03784ZM27.128124 242.03784Q27.128124 244.14722 27.628124 244.85034Q28.128124 245.55347 28.846874 245.55347Q29.58125 245.55347 30.065624 244.85034Q30.565624 244.14722 30.565624 242.03784Q30.565624 239.91284 30.065624 239.22534Q29.58125 238.52222 28.83125 238.52222Q28.1125 238.52222 27.675 239.13159Q27.128124 239.91284 27.128124 242.03784ZM33.05 242.03784Q33.05 240.50659 33.3625 239.58472Q33.675 238.64722 34.284374 238.14722Q34.909374 237.64722 35.846874 237.64722Q36.534374 237.64722 37.05 237.92847Q37.58125 238.20972 37.925 238.74097Q38.26875 239.25659 38.45625 240.00659Q38.64375 240.75659 38.64375 242.03784Q38.64375 243.55347 38.33125 244.47534Q38.034374 245.39722 37.409374 245.91284Q36.8 246.41284 35.846874 246.41284Q34.6125 246.41284 33.89375 245.52222Q33.05 244.45972 33.05 242.03784ZM34.128124 242.03784Q34.128124 244.14722 34.628124 244.85034Q35.128124 245.55347 35.846874 245.55347Q36.58125 245.55347 37.065624 244.85034Q37.565624 244.14722 37.565624 242.03784Q37.565624 239.91284 37.065624 239.22534Q36.58125 238.52222 35.83125 238.52222Q35.1125 238.52222 34.675 239.13159Q34.128124 239.91284 34.128124 242.03784Z" fill-rule="nonzero"/><path fill="#000000" d="M22.425 156.09445L22.425 154.03195L18.70625 154.03195L18.70625 153.0632L22.628124 147.5007L23.4875 147.5007L23.4875 153.0632L24.64375 153.0632L24.64375 154.03195L23.4875 154.03195L23.4875 156.09445L22.425 156.09445ZM22.425 153.0632L22.425 149.20383L19.7375 153.0632L22.425 153.0632ZM26.05 151.86008Q26.05 150.32883 26.3625 149.40695Q26.675 148.46945 27.284374 147.96945Q27.909374 147.46945 28.846874 147.46945Q29.534374 147.46945 30.05 147.7507Q30.58125 148.03195 30.925 148.5632Q31.26875 149.07883 31.45625 149.82883Q31.64375 150.57883 31.64375 151.86008Q31.64375 153.3757 31.33125 154.29758Q31.034374 155.21945 30.409374 155.73508Q29.8 156.23508 28.846874 156.23508Q27.6125 156.23508 26.89375 155.34445Q26.05 154.28195 26.05 151.86008ZM27.128124 151.86008Q27.128124 153.96945 27.628124 154.67258Q28.128124 155.3757 28.846874 155.3757Q29.58125 155.3757 30.065624 154.67258Q30.565624 153.96945 30.565624 151.86008Q30.565624 149.73508 30.065624 149.04758Q29.58125 148.34445 28.83125 148.34445Q28.1125 148.34445 27.675 148.95383Q27.128124 149.73508 27.128124 151.86008ZM33.05 151.86008Q33.05 150.32883 33.3625 149.40695Q33.675 148.46945 34.284374 147.96945Q34.909374 147.46945 35.846874 147.46945Q36.534374 147.46945 37.05 147.7507Q37.58125 148.03195 37.925 148.5632Q38.26875 149.07883 38.45625 149.82883Q38.64375 150.57883 38.64375 151.86008Q38.64375 153.3757 38.33125 154.29758Q38.034374 155.21945 37.409374 155.73508Q36.8 156.23508 35.846874 156.23508Q34.6125 156.23508 33.89375 155.34445Q33.05 154.28195 33.05 151.86008ZM34.128124 151.86008Q34.128124 153.96945 34.628124 154.67258Q35.128124 155.3757 35.846874 155.3757Q36.58125 155.3757 37.065624 154.67258Q37.565624 153.96945 37.565624 151.86008Q37.565624 149.73508 37.065624 149.04758Q36.58125 148.34445 35.83125 148.34445Q35.1125 148.34445 34.675 148.95383Q34.128124 149.73508 34.128124 151.86008Z" fill-rule="nonzero"/><path fill="#000000" d="M24.51875 59.43229L23.471874 59.510414Q23.33125 58.885414 23.08125 58.604164Q22.64375 58.15104 22.01875 58.15104Q21.51875 58.15104 21.128124 58.43229Q20.64375 58.80729 20.346874 59.510414Q20.065624 60.197914 20.05 61.479164Q20.425 60.90104 20.971874 60.61979Q21.534374 60.33854 22.14375 60.33854Q23.190624 60.33854 23.925 61.11979Q24.675 61.90104 24.675 63.11979Q24.675 63.93229 24.315624 64.635414Q23.971874 65.322914 23.3625 65.697914Q22.753124 66.05729 21.9875 66.05729Q20.659374 66.05729 19.83125 65.08854Q19.003124 64.11979 19.003124 61.90104Q19.003124 59.40104 19.925 58.27604Q20.721874 57.291664 22.08125 57.291664Q23.096874 57.291664 23.7375 57.86979Q24.39375 58.43229 24.51875 59.43229ZM20.221874 63.135414Q20.221874 63.68229 20.440624 64.18229Q20.675 64.666664 21.08125 64.93229Q21.503124 65.197914 21.971874 65.197914Q22.628124 65.197914 23.1125 64.666664Q23.596874 64.11979 23.596874 63.197914Q23.596874 62.30729 23.1125 61.791664Q22.64375 61.27604 21.925 61.27604Q21.20625 61.27604 20.70625 61.791664Q20.221874 62.30729 20.221874 63.135414ZM26.05 61.68229Q26.05 60.15104 26.3625 59.229164Q26.675 58.291664 27.284374 57.791664Q27.909374 57.291664 28.846874 57.291664Q29.534374 57.291664 30.05 57.572914Q30.58125 57.854164 30.925 58.385414Q31.26875 58.90104 31.45625 59.65104Q31.64375 60.40104 31.64375 61.68229Q31.64375 63.197914 31.33125 64.11979Q31.034374 65.041664 30.409374 65.55729Q29.8 66.05729 28.846874 66.05729Q27.6125 66.05729 26.89375 65.166664Q26.05 64.104164 26.05 61.68229ZM27.128124 61.68229Q27.128124 63.791664 27.628124 64.49479Q28.128124 65.197914 28.846874 65.197914Q29.58125 65.197914 30.065624 64.49479Q30.565624 63.791664 30.565624 61.68229Q30.565624 59.55729 30.065624 58.86979Q29.58125 58.166664 28.83125 58.166664Q28.1125 58.166664 27.675 58.77604Q27.128124 59.55729 27.128124 61.68229ZM33.05 61.68229Q33.05 60.15104 33.3625 59.229164Q33.675 58.291664 34.284374 57.791664Q34.909374 57.291664 35.846874 57.291664Q36.534374 57.291664 37.05 57.572914Q37.58125 57.854164 37.925 58.385414Q38.26875 58.90104 38.45625 59.65104Q38.64375 60.40104 38.64375 61.68229Q38.64375 63.197914 38.33125 64.11979Q38.034374 65.041664 37.409374 65.55729Q36.8 66.05729 35.846874 66.05729Q34.6125 66.05729 33.89375 65.166664Q33.05 64.104164 33.05 61.68229ZM34.128124 61.68229Q34.128124 63.791664 34.628124 64.49479Q35.128124 65.197914 35.846874 65.197914Q36.58125 65.197914 37.065624 64.49479Q37.565624 63.791664 37.565624 61.68229Q37.565624 59.55729 37.065624 58.86979Q36.58125 58.166664 35.83125 58.166664Q35.1125 58.166664 34.675 58.77604Q34.128124 59.55729 34.128124 61.68229Z" fill-rule="nonzero"/><path fill="#000000" d="M60.325554 345.21564Q60.325554 343.6844 60.638054 342.7625Q60.950554 341.825 61.55993 341.325Q62.18493 340.825 63.12243 340.825Q63.80993 340.825 64.325554 341.10626Q64.856804 341.3875 65.200554 341.91876Q65.544304 342.4344 65.731804 343.1844Q65.919304 343.9344 65.919304 345.21564Q65.919304 346.73126 65.606804 347.65314Q65.30993 348.575 64.68493 349.09064Q64.075554 349.59064 63.12243 349.59064Q61.888054 349.59064 61.169304 348.7Q60.325554 347.6375 60.325554 345.21564ZM61.40368 345.21564Q61.40368 347.325 61.90368 348.02814Q62.40368 348.73126 63.12243 348.73126Q63.856804 348.73126 64.34118 348.02814Q64.84118 347.325 64.84118 345.21564Q64.84118 343.09064 64.34118 342.40314Q63.856804 341.7 63.106804 341.7Q62.388054 341.7 61.950554 342.3094Q61.40368 343.09064 61.40368 345.21564Z" fill-rule="nonzero"/><path fill="#000000" d="M90.628456 349.45L89.58158 349.45L89.58158 342.73126Q89.190956 343.09064 88.565956 343.46564Q87.95658 343.825 87.472206 343.9969L87.472206 342.98126Q88.347206 342.5594 89.003456 341.98126Q89.67533 341.3875 89.95658 340.825L90.628456 340.825L90.628456 349.45Z" fill-rule="nonzero"/><path fill="#000000" d="M118.54073 348.4344L118.54073 349.45L112.85323 349.45Q112.85323 349.075 112.97823 348.71564Q113.19698 348.1375 113.66573 347.575Q114.15011 347.0125 115.05636 346.27814Q116.46261 345.1219 116.94698 344.45Q117.44698 343.77814 117.44698 343.1844Q117.44698 342.5594 116.99386 342.1375Q116.54073 341.7 115.82198 341.7Q115.05636 341.7 114.60323 342.15314Q114.15011 342.60626 114.13448 343.41876L113.05636 343.3094Q113.16573 342.09064 113.88448 341.46564Q114.61886 340.825 115.85323 340.825Q117.08761 340.825 117.80636 341.5125Q118.52511 342.2 118.52511 343.21564Q118.52511 343.73126 118.30636 344.23126Q118.10323 344.71564 117.60323 345.27814Q117.11886 345.825 115.99386 346.77814Q115.04073 347.575 114.75948 347.8719Q114.49386 348.15314 114.32198 348.4344L118.54073 348.4344Z" fill-rule="nonzero"/><path fill="#000000" d="M139.328 347.1844L140.3905 347.04376Q140.56238 347.9344 140.99988 348.34064Q141.43738 348.73126 142.06238 348.73126Q142.81238 348.73126 143.328 348.21564Q143.84363 347.7 143.84363 346.9344Q143.84363 346.21564 143.35925 345.7469Q142.8905 345.2625 142.15613 345.2625Q141.85925 345.2625 141.40613 345.3875L141.53113 344.45Q141.6405 344.46564 141.703 344.46564Q142.37488 344.46564 142.90613 344.1219Q143.453 343.7625 143.453 343.02814Q143.453 342.45 143.06238 342.075Q142.67175 341.6844 142.04675 341.6844Q141.43738 341.6844 141.0155 342.075Q140.60925 342.46564 140.49988 343.23126L139.43738 343.04376Q139.62488 341.9969 140.31238 341.41876Q140.99988 340.825 142.0155 340.825Q142.71863 340.825 143.31238 341.1375Q143.90613 341.4344 144.21863 341.95Q144.53113 342.46564 144.53113 343.0594Q144.53113 343.60626 144.23425 344.075Q143.93738 344.52814 143.35925 344.79376Q144.10925 344.96564 144.53113 345.52814Q144.953 346.075 144.953 346.91876Q144.953 348.04376 144.12488 348.825Q143.31238 349.60626 142.06238 349.60626Q140.93738 349.60626 140.18738 348.9344Q139.43738 348.2469 139.328 347.1844Z" fill-rule="nonzero"/><path fill="#000000" d="M169.03716 349.45L169.03716 347.3875L165.3184 347.3875L165.3184 346.41876L169.24028 340.85626L170.09966 340.85626L170.09966 346.41876L171.2559 346.41876L171.2559 347.3875L170.09966 347.3875L170.09966 349.45L169.03716 349.45ZM169.03716 346.41876L169.03716 342.5594L166.34966 346.41876L169.03716 346.41876Z" fill-rule="nonzero"/><path fill="#000000" d="M191.9963 347.2L193.10568 347.10626Q193.23068 347.91876 193.66818 348.325Q194.1213 348.73126 194.76193 348.73126Q195.51193 348.73126 196.04318 348.15314Q196.57443 347.575 196.57443 346.6375Q196.57443 345.73126 196.0588 345.21564Q195.5588 344.6844 194.73068 344.6844Q194.23068 344.6844 193.8088 344.91876Q193.40256 345.15314 193.16818 345.5125L192.1838 345.3875L193.01193 340.98126L197.29318 340.98126L197.29318 341.98126L193.85568 341.98126L193.40256 344.29376Q194.16818 343.7469 195.01193 343.7469Q196.13693 343.7469 196.90256 344.52814Q197.6838 345.3094 197.6838 346.54376Q197.6838 347.7 197.01193 348.5594Q196.1838 349.59064 194.76193 349.59064Q193.59006 349.59064 192.84006 348.9344Q192.10568 348.27814 191.9963 347.2Z" fill-rule="nonzero"/><path fill="#000000" d="M223.79921 342.96564L222.75233 343.04376Q222.61171 342.41876 222.36171 342.1375Q221.92421 341.6844 221.29921 341.6844Q220.79921 341.6844 220.40858 341.96564Q219.92421 342.34064 219.62733 343.04376Q219.34608 343.73126 219.33046 345.0125Q219.70546 344.4344 220.25233 344.15314Q220.81483 343.8719 221.42421 343.8719Q222.47108 343.8719 223.20546 344.65314Q223.95546 345.4344 223.95546 346.65314Q223.95546 347.46564 223.59608 348.16876Q223.25233 348.85626 222.64296 349.23126Q222.03358 349.59064 221.26796 349.59064Q219.93983 349.59064 219.11171 348.6219Q218.28358 347.65314 218.28358 345.4344Q218.28358 342.9344 219.20546 341.8094Q220.00233 340.825 221.36171 340.825Q222.37733 340.825 223.01796 341.40314Q223.67421 341.96564 223.79921 342.96564ZM219.50233 346.66876Q219.50233 347.21564 219.72108 347.71564Q219.95546 348.2 220.36171 348.46564Q220.78358 348.73126 221.25233 348.73126Q221.90858 348.73126 222.39296 348.2Q222.87733 347.65314 222.87733 346.73126Q222.87733 345.84064 222.39296 345.325Q221.92421 344.8094 221.20546 344.8094Q220.48671 344.8094 219.98671 345.325Q219.50233 345.84064 219.50233 346.66876Z" fill-rule="nonzero"/><path fill="#000000" d="M244.72711 341.98126L244.72711 340.96564L250.28961 340.96564L250.28961 341.79376Q249.47711 342.66876 248.66461 344.1219Q247.86774 345.5594 247.43024 347.09064Q247.10211 348.16876 247.02399 349.45L245.93024 349.45Q245.94586 348.4344 246.32086 346.9969Q246.71149 345.5594 247.41461 344.23126Q248.13336 342.90314 248.94586 341.98126L244.72711 341.98126Z" fill-rule="nonzero"/><path fill="#000000" d="M272.62378 344.79376Q271.96753 344.54376 271.6394 344.10626Q271.3269 343.65314 271.3269 343.04376Q271.3269 342.10626 271.99878 341.46564Q272.68628 340.825 273.79565 340.825Q274.92065 340.825 275.60815 341.48126Q276.29565 342.1375 276.29565 343.075Q276.29565 343.66876 275.98315 344.10626Q275.67065 344.54376 275.03003 344.79376Q275.8269 345.04376 276.23315 345.6219Q276.6394 346.2 276.6394 346.9969Q276.6394 348.09064 275.85815 348.84064Q275.09253 349.59064 273.81128 349.59064Q272.54565 349.59064 271.7644 348.84064Q270.98315 348.09064 270.98315 346.96564Q270.98315 346.1219 271.40503 345.5594Q271.84253 344.9969 272.62378 344.79376ZM272.40503 342.9969Q272.40503 343.60626 272.79565 343.9969Q273.2019 344.3875 273.8269 344.3875Q274.43628 344.3875 274.8269 344.0125Q275.21753 343.6219 275.21753 343.0594Q275.21753 342.48126 274.81128 342.09064Q274.40503 341.6844 273.81128 341.6844Q273.2019 341.6844 272.79565 342.075Q272.40503 342.46564 272.40503 342.9969ZM272.0769 346.96564Q272.0769 347.41876 272.28003 347.84064Q272.49878 348.2625 272.92065 348.4969Q273.34253 348.73126 273.8269 348.73126Q274.5769 348.73126 275.06128 348.2469Q275.56128 347.7625 275.56128 347.0125Q275.56128 346.2469 275.06128 345.7469Q274.56128 345.2469 273.79565 345.2469Q273.04565 345.2469 272.56128 345.7469Q272.0769 346.23126 272.0769 346.96564Z" fill-rule="nonzero"/><path fill="#000000" d="M297.48917 347.46564L298.5048 347.3719Q298.6298 348.09064 298.98917 348.41876Q299.36417 348.73126 299.92667 348.73126Q300.41104 348.73126 300.77042 348.5125Q301.14542 348.27814 301.3798 347.91876Q301.61417 347.54376 301.77042 346.91876Q301.92667 346.27814 301.92667 345.6219Q301.92667 345.54376 301.92667 345.40314Q301.61417 345.90314 301.0673 346.23126Q300.52042 346.54376 299.8798 346.54376Q298.80167 346.54376 298.0673 345.77814Q297.33292 344.9969 297.33292 343.73126Q297.33292 342.41876 298.09854 341.6219Q298.8798 340.825 300.03604 340.825Q300.86417 340.825 301.55167 341.27814Q302.2548 341.73126 302.61417 342.575Q302.97354 343.40314 302.97354 344.98126Q302.97354 346.6219 302.61417 347.60626Q302.27042 348.575 301.55167 349.09064Q300.84854 349.59064 299.91104 349.59064Q298.89542 349.59064 298.2548 349.04376Q297.61417 348.48126 297.48917 347.46564ZM301.80167 343.66876Q301.80167 342.7625 301.3173 342.23126Q300.84854 341.7 300.16104 341.7Q299.45792 341.7 298.92667 342.27814Q298.41104 342.84064 298.41104 343.7625Q298.41104 344.575 298.91104 345.09064Q299.41104 345.60626 300.1298 345.60626Q300.86417 345.60626 301.33292 345.09064Q301.80167 344.575 301.80167 343.66876Z" fill-rule="nonzero"/><path fill="#000000" d="M324.13583 349.45L323.08896 349.45L323.08896 342.73126Q322.69833 343.09064 322.07333 343.46564Q321.46396 343.825 320.97958 343.9969L320.97958 342.98126Q321.85458 342.5594 322.51083 341.98126Q323.1827 341.3875 323.46396 340.825L324.13583 340.825L324.13583 349.45ZM327.16708 345.21564Q327.16708 343.6844 327.47958 342.7625Q327.79208 341.825 328.40146 341.325Q329.02646 340.825 329.96396 340.825Q330.65146 340.825 331.16708 341.10626Q331.69833 341.3875 332.04208 341.91876Q332.38583 342.4344 332.57333 343.1844Q332.76083 343.9344 332.76083 345.21564Q332.76083 346.73126 332.44833 347.65314Q332.15146 348.575 331.52646 349.09064Q330.91708 349.59064 329.96396 349.59064Q328.72958 349.59064 328.01083 348.7Q327.16708 347.6375 327.16708 345.21564ZM328.2452 345.21564Q328.2452 347.325 328.7452 348.02814Q329.2452 348.73126 329.96396 348.73126Q330.69833 348.73126 331.1827 348.02814Q331.6827 347.325 331.6827 345.21564Q331.6827 343.09064 331.1827 342.40314Q330.69833 341.7 329.94833 341.7Q329.22958 341.7 328.79208 342.3094Q328.2452 343.09064 328.2452 345.21564Z" fill-rule="nonzero"/><path fill="#000000" d="M350.46997 349.45L349.4231 349.45L349.4231 342.73126Q349.03247 343.09064 348.40747 343.46564Q347.7981 343.825 347.31372 343.9969L347.31372 342.98126Q348.18872 342.5594 348.84497 341.98126Q349.51685 341.3875 349.7981 340.825L350.46997 340.825L350.46997 349.45ZM357.46997 349.45L356.4231 349.45L356.4231 342.73126Q356.03247 343.09064 355.40747 343.46564Q354.7981 343.825 354.31372 343.9969L354.31372 342.98126Q355.18872 342.5594 355.84497 341.98126Q356.51685 341.3875 356.7981 340.825L357.46997 340.825L357.46997 349.45Z" fill-rule="nonzero"/><path fill="#000000" d="M376.80414 349.45L375.75726 349.45L375.75726 342.73126Q375.36664 343.09064 374.74164 343.46564Q374.13226 343.825 373.6479 343.9969L373.6479 342.98126Q374.5229 342.5594 375.17914 341.98126Q375.851 341.3875 376.13226 340.825L376.80414 340.825L376.80414 349.45ZM385.38226 348.4344L385.38226 349.45L379.69476 349.45Q379.69476 349.075 379.81976 348.71564Q380.0385 348.1375 380.50726 347.575Q380.99164 347.0125 381.8979 346.27814Q383.30414 345.1219 383.7885 344.45Q384.2885 343.77814 384.2885 343.1844Q384.2885 342.5594 383.8354 342.1375Q383.38226 341.7 382.6635 341.7Q381.8979 341.7 381.44476 342.15314Q380.99164 342.60626 380.976 343.41876L379.8979 343.3094Q380.00726 342.09064 380.726 341.46564Q381.4604 340.825 382.69476 340.825Q383.92914 340.825 384.6479 341.5125Q385.36664 342.2 385.36664 343.21564Q385.36664 343.73126 385.1479 344.23126Q384.94476 344.71564 384.44476 345.27814Q383.9604 345.825 382.8354 346.77814Q381.88226 347.575 381.601 347.8719Q381.3354 348.15314 381.1635 348.4344L385.38226 348.4344Z" fill-rule="nonzero"/><path fill="#000000" d="M403.13828 349.45L402.0914 349.45L402.0914 342.73126Q401.70078 343.09064 401.07578 343.46564Q400.4664 343.825 399.98203 343.9969L399.98203 342.98126Q400.85703 342.5594 401.51328 341.98126Q402.18515 341.3875 402.4664 340.825L403.13828 340.825L403.13828 349.45ZM406.16953 347.1844L407.23203 347.04376Q407.4039 347.9344 407.8414 348.34064Q408.2789 348.73126 408.9039 348.73126Q409.6539 348.73126 410.16953 348.21564Q410.68515 347.7 410.68515 346.9344Q410.68515 346.21564 410.20078 345.7469Q409.73203 345.2625 408.99765 345.2625Q408.70078 345.2625 408.24765 345.3875L408.37265 344.45Q408.48203 344.46564 408.54453 344.46564Q409.2164 344.46564 409.74765 344.1219Q410.29453 343.7625 410.29453 343.02814Q410.29453 342.45 409.9039 342.075Q409.51328 341.6844 408.88828 341.6844Q408.2789 341.6844 407.85703 342.075Q407.45078 342.46564 407.3414 343.23126L406.2789 343.04376Q406.4664 341.9969 407.1539 341.41876Q407.8414 340.825 408.85703 340.825Q409.56015 340.825 410.1539 341.1375Q410.74765 341.4344 411.06015 341.95Q411.37265 342.46564 411.37265 343.0594Q411.37265 343.60626 411.07578 344.075Q410.7789 344.52814 410.20078 344.79376Q410.95078 344.96564 411.37265 345.52814Q411.79453 346.075 411.79453 346.91876Q411.79453 348.04376 410.9664 348.825Q410.1539 349.60626 408.9039 349.60626Q407.7789 349.60626 407.0289 348.9344Q406.2789 348.2469 406.16953 347.1844Z" fill-rule="nonzero"/><path fill="#000000" d="M429.47244 349.45L428.42557 349.45L428.42557 342.73126Q428.03494 343.09064 427.40994 343.46564Q426.80057 343.825 426.3162 343.9969L426.3162 342.98126Q427.1912 342.5594 427.84744 341.98126Q428.51932 341.3875 428.80057 340.825L429.47244 340.825L429.47244 349.45ZM435.8787 349.45L435.8787 347.3875L432.15994 347.3875L432.15994 346.41876L436.08182 340.85626L436.9412 340.85626L436.9412 346.41876L438.09744 346.41876L438.09744 347.3875L436.9412 347.3875L436.9412 349.45L435.8787 349.45ZM435.8787 346.41876L435.8787 342.5594L433.1912 346.41876L435.8787 346.41876Z" fill-rule="nonzero"/><path fill="#000000" d="M455.80658 349.45L454.7597 349.45L454.7597 342.73126Q454.36908 343.09064 453.74408 343.46564Q453.1347 343.825 452.65033 343.9969L452.65033 342.98126Q453.52533 342.5594 454.18158 341.98126Q454.85345 341.3875 455.1347 340.825L455.80658 340.825L455.80658 349.45ZM458.83783 347.2L459.9472 347.10626Q460.0722 347.91876 460.5097 348.325Q460.96283 348.73126 461.60345 348.73126Q462.35345 348.73126 462.8847 348.15314Q463.41595 347.575 463.41595 346.6375Q463.41595 345.73126 462.90033 345.21564Q462.40033 344.6844 461.5722 344.6844Q461.0722 344.6844 460.65033 344.91876Q460.24408 345.15314 460.0097 345.5125L459.02533 345.3875L459.85345 340.98126L464.1347 340.98126L464.1347 341.98126L460.6972 341.98126L460.24408 344.29376Q461.0097 343.7469 461.85345 343.7469Q462.97845 343.7469 463.74408 344.52814Q464.52533 345.3094 464.52533 346.54376Q464.52533 347.7 463.85345 348.5594Q463.02533 349.59064 461.60345 349.59064Q460.43158 349.59064 459.68158 348.9344Q458.9472 348.27814 458.83783 347.2Z" fill-rule="nonzero"/><path fill="#000000" d="M482.14075 349.45L481.09387 349.45L481.09387 342.73126Q480.70325 343.09064 480.07825 343.46564Q479.46887 343.825 478.9845 343.9969L478.9845 342.98126Q479.8595 342.5594 480.51575 341.98126Q481.18762 341.3875 481.46887 340.825L482.14075 340.825L482.14075 349.45ZM490.64075 342.96564L489.59387 343.04376Q489.45325 342.41876 489.20325 342.1375Q488.76575 341.6844 488.14075 341.6844Q487.64075 341.6844 487.25012 341.96564Q486.76575 342.34064 486.46887 343.04376Q486.18762 343.73126 486.172 345.0125Q486.547 344.4344 487.09387 344.15314Q487.65637 343.8719 488.26575 343.8719Q489.31262 343.8719 490.047 344.65314Q490.797 345.4344 490.797 346.65314Q490.797 347.46564 490.43762 348.16876Q490.09387 348.85626 489.4845 349.23126Q488.87512 349.59064 488.1095 349.59064Q486.78137 349.59064 485.95325 348.6219Q485.12512 347.65314 485.12512 345.4344Q485.12512 342.9344 486.047 341.8094Q486.84387 340.825 488.20325 340.825Q489.21887 340.825 489.8595 341.40314Q490.51575 341.96564 490.64075 342.96564ZM486.34387 346.66876Q486.34387 347.21564 486.56262 347.71564Q486.797 348.2 487.20325 348.46564Q487.62512 348.73126 488.09387 348.73126Q488.75012 348.73126 489.2345 348.2Q489.71887 347.65314 489.71887 346.73126Q489.71887 345.84064 489.2345 345.325Q488.76575 344.8094 488.047 344.8094Q487.32825 344.8094 486.82825 345.325Q486.34387 345.84064 486.34387 346.66876Z" fill-rule="nonzero"/><path fill="#000000" d="M508.47488 349.45L507.428 349.45L507.428 342.73126Q507.03738 343.09064 506.41238 343.46564Q505.803 343.825 505.31863 343.9969L505.31863 342.98126Q506.19363 342.5594 506.84988 341.98126Q507.52176 341.3875 507.803 340.825L508.47488 340.825L508.47488 349.45ZM511.56863 341.98126L511.56863 340.96564L517.1311 340.96564L517.1311 341.79376Q516.3186 342.66876 515.5061 344.1219Q514.7092 345.5594 514.2717 347.09064Q513.9436 348.16876 513.8655 349.45L512.7717 349.45Q512.78735 348.4344 513.16235 346.9969Q513.553 345.5594 514.2561 344.23126Q514.97485 342.90314 515.78735 341.98126L511.56863 341.98126Z" fill-rule="nonzero"/><path fill="#000000" d="M534.809 349.45L533.76215 349.45L533.76215 342.73126Q533.3715 343.09064 532.7465 343.46564Q532.13715 343.825 531.6528 343.9969L531.6528 342.98126Q532.5278 342.5594 533.184 341.98126Q533.8559 341.3875 534.13715 340.825L534.809 340.825L534.809 349.45ZM537.9965 347.46564L539.01215 347.3719Q539.13715 348.09064 539.4965 348.41876Q539.8715 348.73126 540.434 348.73126Q540.9184 348.73126 541.2778 348.5125Q541.6528 348.27814 541.88715 347.91876Q542.1215 347.54376 542.2778 346.91876Q542.434 346.27814 542.434 345.6219Q542.434 345.54376 542.434 345.40314Q542.1215 345.90314 541.57465 346.23126Q541.0278 346.54376 540.38715 346.54376Q539.309 346.54376 538.57465 345.77814Q537.8403 344.9969 537.8403 343.73126Q537.8403 342.41876 538.6059 341.6219Q539.38715 340.825 540.5434 340.825Q541.3715 340.825 542.059 341.27814Q542.76215 341.73126 543.1215 342.575Q543.4809 343.40314 543.4809 344.98126Q543.4809 346.6219 543.1215 347.60626Q542.7778 348.575 542.059 349.09064Q541.3559 349.59064 540.4184 349.59064Q539.4028 349.59064 538.76215 349.04376Q538.1215 348.48126 537.9965 347.46564ZM542.309 343.66876Q542.309 342.7625 541.82465 342.23126Q541.3559 341.7 540.6684 341.7Q539.9653 341.7 539.434 342.27814Q538.9184 342.84064 538.9184 343.7625Q538.9184 344.575 539.4184 345.09064Q539.9184 345.60626 540.63715 345.60626Q541.3715 345.60626 541.8403 345.09064Q542.309 344.575 542.309 343.66876Z" fill-rule="nonzero"/><path fill="#000000" d="M562.7213 348.4344L562.7213 349.45L557.0338 349.45Q557.0338 349.075 557.1588 348.71564Q557.37756 348.1375 557.8463 347.575Q558.3307 347.0125 559.23694 346.27814Q560.6432 345.1219 561.12756 344.45Q561.62756 343.77814 561.62756 343.1844Q561.62756 342.5594 561.17444 342.1375Q560.7213 341.7 560.00256 341.7Q559.23694 341.7 558.7838 342.15314Q558.3307 342.60626 558.31506 343.41876L557.23694 343.3094Q557.3463 342.09064 558.06506 341.46564Q558.79944 340.825 560.0338 340.825Q561.2682 340.825 561.98694 341.5125Q562.7057 342.2 562.7057 343.21564Q562.7057 343.73126 562.48694 344.23126Q562.2838 344.71564 561.7838 345.27814Q561.29944 345.825 560.17444 346.77814Q559.2213 347.575 558.94006 347.8719Q558.67444 348.15314 558.50256 348.4344L562.7213 348.4344ZM564.17444 345.21564Q564.17444 343.6844 564.48694 342.7625Q564.79944 341.825 565.4088 341.325Q566.0338 340.825 566.9713 340.825Q567.6588 340.825 568.17444 341.10626Q568.7057 341.3875 569.04944 341.91876Q569.3932 342.4344 569.5807 343.1844Q569.7682 343.9344 569.7682 345.21564Q569.7682 346.73126 569.4557 347.65314Q569.1588 348.575 568.5338 349.09064Q567.92444 349.59064 566.9713 349.59064Q565.73694 349.59064 565.0182 348.7Q564.17444 347.6375 564.17444 345.21564ZM565.25256 345.21564Q565.25256 347.325 565.75256 348.02814Q566.25256 348.73126 566.9713 348.73126Q567.7057 348.73126 568.19006 348.02814Q568.69006 347.325 568.69006 345.21564Q568.69006 343.09064 568.19006 342.40314Q567.7057 341.7 566.9557 341.7Q566.23694 341.7 565.79944 342.3094Q565.25256 343.09064 565.25256 345.21564Z" fill-rule="nonzero"/><path fill="#757575" d="M20.128124 23.2375L29.378124 23.2375L29.378124 24.925L22.01875 24.925L22.01875 37.55L20.128124 37.55L20.128124 23.2375ZM30.8625 27.175L32.628124 27.175L32.628124 35.08125L37.503124 27.175L39.39375 27.175L39.39375 37.55L37.64375 37.55L37.64375 29.690624L32.76875 37.55L30.8625 37.55L30.8625 27.175ZM47.64375 33.753124L49.3625 33.971874Q49.08125 35.76875 47.909374 36.784374Q46.753124 37.784374 45.05 37.784374Q42.925 37.784374 41.628124 36.39375Q40.33125 35.003124 40.33125 32.409374Q40.33125 30.721874 40.878124 29.471874Q41.440624 28.20625 42.58125 27.58125Q43.721874 26.940624 45.065624 26.940624Q46.753124 26.940624 47.815624 27.8Q48.89375 28.659374 49.20625 30.221874L47.4875 30.4875Q47.253124 29.440624 46.628124 28.925Q46.003124 28.39375 45.128124 28.39375Q43.8 28.39375 42.971874 29.346874Q42.14375 30.3 42.14375 32.346874Q42.14375 34.440624 42.940624 35.39375Q43.7375 36.33125 45.034374 36.33125Q46.065624 36.33125 46.753124 35.70625Q47.45625 35.065624 47.64375 33.753124ZM49.925 27.175L58.346874 27.175L58.346874 28.628124L55.003124 28.628124L55.003124 37.55L53.26875 37.55L53.26875 28.628124L49.925 28.628124L49.925 27.175ZM59.221874 32.3625Q59.221874 29.4875 60.815624 28.096874Q62.159374 26.940624 64.08125 26.940624Q66.22188 26.940624 67.56563 28.346874Q68.925 29.753124 68.925 32.221874Q68.925 34.221874 68.33125 35.378124Q67.7375 36.51875 66.58125 37.159374Q65.44063 37.784374 64.08125 37.784374Q61.89375 37.784374 60.55 36.39375Q59.221874 34.9875 59.221874 32.3625ZM61.01875 32.3625Q61.01875 34.3625 61.878124 35.346874Q62.753124 36.33125 64.08125 36.33125Q65.39375 36.33125 66.25313 35.346874Q67.12813 34.346874 67.12813 32.3Q67.12813 30.378124 66.25313 29.39375Q65.37813 28.39375 64.08125 28.39375Q62.753124 28.39375 61.878124 29.39375Q61.01875 30.378124 61.01875 32.3625ZM70.87813 27.175L76.84688 27.175L76.84688 28.628124L72.64375 28.628124L72.64375 37.55L70.87813 37.55L70.87813 27.175ZM77.8625 41.51875L77.8625 27.175L79.47188 27.175L79.47188 28.51875Q80.03438 27.7375 80.7375 27.346874Q81.45625 26.940624 82.47188 26.940624Q83.8 26.940624 84.81563 27.628124Q85.83125 28.315624 86.34688 29.565624Q86.87813 30.8 86.87813 32.284374Q86.87813 33.878124 86.3 35.159374Q85.7375 36.425 84.64375 37.1125Q83.55 37.784374 82.34688 37.784374Q81.47188 37.784374 80.76875 37.409374Q80.08125 37.034374 79.62813 36.471874L79.62813 41.51875L77.8625 41.51875ZM79.45625 32.425Q79.45625 34.425 80.26875 35.378124Q81.08125 36.33125 82.2375 36.33125Q83.40938 36.33125 84.2375 35.346874Q85.08125 34.3625 85.08125 32.26875Q85.08125 30.3 84.25313 29.315624Q83.44063 28.315624 82.31563 28.315624Q81.19063 28.315624 80.31563 29.378124Q79.45625 30.425 79.45625 32.425ZM95.64375 36.26875Q94.65938 37.096874 93.75313 37.440624Q92.84688 37.784374 91.81563 37.784374Q90.1125 37.784374 89.19063 36.95625Q88.26875 36.1125 88.26875 34.815624Q88.26875 34.05 88.6125 33.425Q88.97188 32.8 89.53438 32.425Q90.09688 32.034374 90.8 31.83125Q91.31563 31.70625 92.3625 31.565624Q94.4875 31.315624 95.4875 30.971874Q95.50313 30.6125 95.50313 30.503124Q95.50313 29.440624 95.00313 28.9875Q94.33125 28.39375 93.00313 28.39375Q91.75313 28.39375 91.15938 28.83125Q90.58125 29.26875 90.3 30.378124L88.58125 30.14375Q88.81563 29.034374 89.34688 28.3625Q89.87813 27.675 90.89375 27.315624Q91.90938 26.940624 93.25313 26.940624Q94.58125 26.940624 95.40938 27.253124Q96.2375 27.565624 96.62813 28.05Q97.01875 28.51875 97.175 29.2375Q97.26875 29.690624 97.26875 30.8625L97.26875 33.20625Q97.26875 35.659374 97.37813 36.315624Q97.4875 36.95625 97.83125 37.55L95.9875 37.55Q95.72188 37.003124 95.64375 36.26875ZM95.4875 32.346874Q94.53438 32.7375 92.6125 33.003124Q91.53438 33.159374 91.08125 33.3625Q90.64375 33.55 90.39375 33.925Q90.14375 34.3 90.14375 34.76875Q90.14375 35.471874 90.675 35.940624Q91.20625 36.409374 92.2375 36.409374Q93.25313 36.409374 94.03438 35.971874Q94.83125 35.51875 95.20625 34.753124Q95.4875 34.14375 95.4875 32.9875L95.4875 32.346874ZM99.925 27.175L102.65938 27.175L105.37813 35.471874L108.40938 27.175L110.94063 27.175L110.94063 37.55L109.175 37.55L109.175 29.20625L106.1125 37.55L104.53438 37.55L101.64375 28.8L101.64375 37.55L99.925 37.55L99.925 27.175ZM112.925 27.175L115.65938 27.175L118.37813 35.471874L121.40938 27.175L123.94063 27.175L123.94063 37.55L122.175 37.55L122.175 29.20625L119.1125 37.55L117.53438 37.55L114.64375 28.8L114.64375 37.55L112.925 37.55L112.925 27.175ZM132.64375 36.26875Q131.65938 37.096874 130.75313 37.440624Q129.84688 37.784374 128.81563 37.784374Q127.1125 37.784374 126.19063 36.95625Q125.26875 36.1125 125.26875 34.815624Q125.26875 34.05 125.6125 33.425Q125.97188 32.8 126.53438 32.425Q127.09688 32.034374 127.8 31.83125Q128.31563 31.70625 129.3625 31.565624Q131.4875 31.315624 132.4875 30.971874Q132.50313 30.6125 132.50313 30.503124Q132.50313 29.440624 132.00313 28.9875Q131.33125 28.39375 130.00313 28.39375Q128.75313 28.39375 128.15938 28.83125Q127.58125 29.26875 127.3 30.378124L125.58125 30.14375Q125.81563 29.034374 126.34688 28.3625Q126.87813 27.675 127.89375 27.315624Q128.90938 26.940624 130.25313 26.940624Q131.58125 26.940624 132.40938 27.253124Q133.2375 27.565624 133.62813 28.05Q134.01875 28.51875 134.175 29.2375Q134.26875 29.690624 134.26875 30.8625L134.26875 33.20625Q134.26875 35.659374 134.37813 36.315624Q134.4875 36.95625 134.83125 37.55L132.9875 37.55Q132.72188 37.003124 132.64375 36.26875ZM132.4875 32.346874Q131.53438 32.7375 129.6125 33.003124Q128.53438 33.159374 128.08125 33.3625Q127.64375 33.55 127.39375 33.925Q127.14375 34.3 127.14375 34.76875Q127.14375 35.471874 127.675 35.940624Q128.20625 36.409374 129.2375 36.409374Q130.25313 36.409374 131.03438 35.971874Q131.83125 35.51875 132.20625 34.753124Q132.4875 34.14375 132.4875 32.9875L132.4875 32.346874ZM142.8625 27.175L144.6125 27.175L144.6125 31.659374Q145.45625 31.659374 145.78438 31.346874Q146.12813 31.01875 146.78438 29.45625Q147.3 28.2375 147.6125 27.846874Q147.94063 27.45625 148.3625 27.315624Q148.78438 27.175 149.72188 27.175L150.06563 27.175L150.06563 28.628124L149.58125 28.628124Q148.87813 28.628124 148.69063 28.83125Q148.4875 29.05 148.06563 30.1125Q147.65938 31.128124 147.33125 31.51875Q147.00313 31.909374 146.3 32.221874Q147.44063 32.534374 148.53438 34.33125L150.45625 37.55L148.51875 37.55L146.64375 34.33125Q146.06563 33.3625 145.62813 33.065624Q145.20625 32.753124 144.6125 32.753124L144.6125 37.55L142.8625 37.55L142.8625 27.175ZM152.72188 27.175L160.89375 27.175L160.89375 37.55L159.14375 37.55L159.14375 28.628124L154.4875 28.628124L154.4875 33.8Q154.4875 35.6125 154.3625 36.190624Q154.25313 36.753124 153.72188 37.190624Q153.19063 37.6125 152.20625 37.6125Q151.58125 37.6125 150.78438 37.534374L150.78438 36.08125L151.55 36.08125Q152.09688 36.08125 152.33125 35.971874Q152.56563 35.846874 152.64375 35.6125Q152.72188 35.3625 152.72188 34.01875L152.72188 27.175ZM162.8625 27.175L164.62813 27.175L164.62813 35.08125L169.50313 27.175L171.39375 27.175L171.39375 37.55L169.64375 37.55L169.64375 29.690624L164.76875 37.55L162.8625 37.55L162.8625 27.175ZM172.8625 27.175L174.6125 27.175L174.6125 31.659374Q175.45625 31.659374 175.78438 31.346874Q176.12813 31.01875 176.78438 29.45625Q177.3 28.2375 177.6125 27.846874Q177.94063 27.45625 178.3625 27.315624Q178.78438 27.175 179.72188 27.175L180.06563 27.175L180.06563 28.628124L179.58125 28.628124Q178.87813 28.628124 178.69063 28.83125Q178.4875 29.05 178.06563 30.1125Q177.65938 31.128124 177.33125 31.51875Q177.00313 31.909374 176.3 32.221874Q177.44063 32.534374 178.53438 34.33125L180.45625 37.55L178.51875 37.55L176.64375 34.33125Q176.06563 33.3625 175.62813 33.065624Q175.20625 32.753124 174.6125 32.753124L174.6125 37.55L172.8625 37.55L172.8625 27.175ZM181.22188 32.3625Q181.22188 29.4875 182.81563 28.096874Q184.15938 26.940624 186.08125 26.940624Q188.22188 26.940624 189.56563 28.346874Q190.925 29.753124 190.925 32.221874Q190.925 34.221874 190.33125 35.378124Q189.7375 36.51875 188.58125 37.159374Q187.44063 37.784374 186.08125 37.784374Q183.89375 37.784374 182.55 36.39375Q181.22188 34.9875 181.22188 32.3625ZM183.01875 32.3625Q183.01875 34.3625 183.87813 35.346874Q184.75313 36.33125 186.08125 36.33125Q187.39375 36.33125 188.25313 35.346874Q189.12813 34.346874 189.12813 32.3Q189.12813 30.378124 188.25313 29.39375Q187.37813 28.39375 186.08125 28.39375Q184.75313 28.39375 183.87813 29.39375Q183.01875 30.378124 183.01875 32.3625ZM192.87813 27.175L196.925 27.175Q198.425 27.175 199.14375 27.425Q199.87813 27.675 200.39375 28.346874Q200.925 29.003124 200.925 29.925Q200.925 30.675 200.6125 31.2375Q200.31563 31.784374 199.69063 32.14375Q200.425 32.39375 200.90938 33.065624Q201.39375 33.7375 201.39375 34.64375Q201.3 36.128124 200.33125 36.846874Q199.37813 37.55 197.55 37.55L192.87813 37.55L192.87813 27.175ZM194.64375 31.55L196.51875 31.55Q197.62813 31.55 198.05 31.440624Q198.47188 31.315624 198.8 30.95625Q199.14375 30.596874 199.14375 30.096874Q199.14375 29.284374 198.55 28.95625Q197.97188 28.628124 196.56563 28.628124L194.64375 28.628124L194.64375 31.55ZM194.64375 36.096874L196.95625 36.096874Q198.44063 36.096874 199.00313 35.753124Q199.56563 35.409374 199.58125 34.565624Q199.58125 34.065624 199.25313 33.64375Q198.94063 33.20625 198.425 33.096874Q197.90938 32.9875 196.76875 32.9875L194.64375 32.9875L194.64375 36.096874Z" fill-rule="nonzero"/></svg>